<?xml version="1.0" encoding="utf-8"?>
<!-- Generator: Adobe Illustrator 24.1.0, SVG Export Plug-In . SVG Version: 6.00 Build 0)  -->
<svg version="1.1" id="Capa_1" xmlns="http://www.w3.org/2000/svg" xmlns:xlink="http://www.w3.org/1999/xlink" x="0px" y="0px"
	 viewBox="0 0 16.9 16.9" style="enable-background:new 0 0 16.9 16.9;" xml:space="preserve">
<style type="text/css">
	.st0{fill:#252525;}
</style>
<g>
	<path class="st0" d="M5,5.8C4.9,6.3,4.8,6.9,4.6,7.4L4.1,9.2H6L5.5,7.4C5.3,6.9,5.2,6.3,5,5.8z"/>
	<path class="st0" d="M12.6,8c-0.9,0-1.3,0.8-1.4,1.4h2.6C13.8,8.9,13.5,8,12.6,8z"/>
	<path class="st0" d="M15.8,0H1C0.5,0,0,0.5,0,1v14.8c0,0.6,0.5,1,1,1h14.8c0.6,0,1-0.5,1-1V1C16.9,0.5,16.4,0,15.8,0z M7,12.9
		l-0.7-2.2H3.8l-0.6,2.2h-2l2.6-8.6h2.5L9,12.9H7z M15.1,10.4h-3.9c0,1.1,0.9,1.5,1.8,1.5c0.7,0,1.2-0.1,1.6-0.3l0.2,1
		c-0.5,0.2-1.2,0.4-2,0.4c-1.9,0-3-1.2-3-3c0-1.6,1-3.1,2.9-3.1s2.5,1.6,2.5,2.8C15.2,10.1,15.1,10.3,15.1,10.4z"/>
</g>
</svg>
