<?xml version="1.0" encoding="utf-8"?>
<!-- Generator: Adobe Illustrator 24.1.0, SVG Export Plug-In . SVG Version: 6.00 Build 0)  -->
<svg version="1.1" id="Capa_1" xmlns="http://www.w3.org/2000/svg" xmlns:xlink="http://www.w3.org/1999/xlink" x="0px" y="0px"
	 viewBox="0 0 16.9 16.9" style="enable-background:new 0 0 16.9 16.9;" xml:space="preserve">
<style type="text/css">
	.st0{fill:#444444;}
	.st1{fill:#252525;}
	.st2{fill:#606060;}
</style>
<path class="st0" d="M6.8,7.6H1.2c0,0-0.3,3.7,2.9,6.7c2.9,2.8,6.4,2.5,6.4,2.5v-5.4C8.7,11.4,6.8,9.9,6.8,7.6z"/>
<path class="st1" d="M10,4.4V0c0,0-3.1-0.2-5.5,2.4c-1.9,1.9-2,4.4-2,4.4s3.4,0.6,4.3,0.8C6.7,5.8,8.2,4.4,10,4.4z"/>
<path d="M2.5,6.8c0,0-0.1,0.4,0,0.8h4.3L2.5,6.8z"/>
<path d="M10,4.4l0.8-3c0,0-0.5-0.1-0.8,0V4.4z"/>
<path class="st1" d="M10,4.4c0,0,2.7-0.1,2.8,2.8h2.9c0,0,0.3-4.7-4.9-5.8C10.6,2.1,10,4.4,10,4.4z"/>
<path class="st2" d="M10.6,11.4l1-2.2c0,0,1.2-0.6,1.2-2c0.6,0.2,1.2,0.5,1.7,0.7C14.4,8.7,13.5,11.3,10.6,11.4z"/>
<path class="st0" d="M11.6,9.2c0,0-0.4,0.3-1,0.2v2L11.6,9.2z M12.8,7.2h1.8c0,0,0,0.3-0.1,0.7C14.2,7.8,12.8,7.2,12.8,7.2z"/>
</svg>
