<?xml version="1.0" encoding="utf-8"?>
<!-- Generator: Adobe Illustrator 24.1.0, SVG Export Plug-In . SVG Version: 6.00 Build 0)  -->
<svg version="1.1" id="Capa_1" xmlns="http://www.w3.org/2000/svg" xmlns:xlink="http://www.w3.org/1999/xlink" x="0px" y="0px"
	 viewBox="0 0 512 512" style="enable-background:new 0 0 512 512;" xml:space="preserve">
<style type="text/css">
	.st0{opacity:0.986;fill:#252525;fill-opacity:0;enable-background:new    ;}
	.st1{fill:#252525;}
</style>
<path id="path5159" class="st0" d="M225.4,393.3c-5.7-1.7-33.8-9.3-62.4-17.1l-51.9-14v-26c0-25.5,0-26,2.6-25.2
	c1.4,0.5,20.4,5.7,42.1,11.7l39.5,10.9l0.3-115.6l0.3-115.6H239v147c0,116.8-0.3,147-1.6,147C236.6,396.3,231,394.9,225.4,393.3
	L225.4,393.3z"/>
<path class="st1" d="M35.3,4.4l41,451.9L256.1,507l180.8-51.1L477.5,4.6L35.3,4.4z M239.8,397.6l-129.7-35l-0.2-53l85.4,23.3
	l0.5-231.6h44L239.8,397.6L239.8,397.6z M406.1,221.9l-11.9,144.7l0,0l-119.2,31l-0.9-52.4l86.2-22.9l1.2-42.8L276,294.2L274.2,102
	l141.6-0.7l-3.8,52.8l-93.8,0.3v77.3L406.1,221.9z M256.7,44.6L256.7,44.6L256.7,44.6L256.7,44.6z"/>
</svg>
