<?xml version="1.0" encoding="utf-8"?>
<!-- Generator: Adobe Illustrator 24.1.0, SVG Export Plug-In . SVG Version: 6.00 Build 0)  -->
<svg version="1.1" id="Capa_1" xmlns="http://www.w3.org/2000/svg" xmlns:xlink="http://www.w3.org/1999/xlink" x="0px" y="0px"
	 viewBox="0 0 512 512" style="enable-background:new 0 0 512 512;" xml:space="preserve">
<style type="text/css">
	.st0{fill:#252525;}
</style>
<path class="st0" d="M440.1,275c-17.8,0.1-33.3,4.4-46.2,10.8c-4.8-9.5-9.6-17.7-10.4-23.9c-0.9-7.2-2-11.5-0.9-20.1
	s6.1-20.7,6.1-21.7c-0.1-0.9-1.1-5.3-11.3-5.4c-10.3-0.1-19.1,2-20.1,4.7s-3,8.9-4.3,15.2c-1.8,9.4-20.5,42.5-31.2,59.9
	c-3.5-6.8-6.5-12.7-7.1-17.5c-0.9-7.2-2-11.5-0.9-20.1s6.1-20.7,6.1-21.7c-0.1-0.9-1.1-5.3-11.3-5.4c-10.3-0.1-19.1,2-20.1,4.7
	s-2.1,9.1-4.3,15.2c-2.1,6.2-27,61.5-33.5,76c-3.3,7.4-6.2,13.2-8.3,17.2s-0.1,0.3-0.3,0.7c-1.8,3.4-2.8,5.3-2.8,5.3v0.1
	c-1.4,2.5-2.9,4.9-3.6,4.9c-0.5,0-1.5-6.7,0.2-15.8c3.7-19.2,12.6-49.2,12.5-50.3c0-0.5,1.7-5.8-5.8-8.5c-7.3-2.7-9.9,1.8-10.5,1.8
	s-1.1,1.6-1.1,1.6s8.1-33.7-15.4-33.7c-14.7,0-35,16-45.1,30.7c-6.4,3.5-19.9,10.9-34.2,18.7c-5.5,3-11.2,6.2-16.5,9.1l-1.1-1.2
	c-28.5-30.4-81.1-51.9-78.9-92.7c0.8-14.8,6-54,101.1-101.3c78-38.8,140.4-28.2,151.2-4.5c15.4,33.8-33.4,96.8-114.4,105.8
	c-30.9,3.5-47.1-8.5-51.2-12.9c-4.3-4.7-4.9-4.9-6.5-4c-2.6,1.4-1,5.6,0,8.1c2.4,6.3,12.3,17.4,29.3,23c14.8,4.9,51.1,7.6,94.9-9.4
	c49.1-19,87.4-71.8,76.2-115.9C309,57.6,234.5,42.9,164.1,67.9C122.3,82.7,77,106,44.3,136.5c-38.8,36.2-45,67.9-42.4,81
	c9.1,46.9,73.7,77.5,99.6,100.1c-1.3,0.7-2.5,1.4-3.6,2c-13,6.4-62.3,32.2-74.6,59.4c-13.9,30.9,2.2,53.1,12.9,56.1
	c33.3,9.3,67.3-7.4,85.7-34.7c18.3-27.4,16.1-62.9,7.7-79.1l-0.3-0.6l10.2-6c6.6-3.9,13-7.5,18.7-10.6c-3.2,8.7-5.5,18.9-6.7,33.8
	c-1.4,17.5,5.8,40.2,15.2,49.2c4.2,3.9,9.2,4,12.2,4c11,0,15.9-9.1,21.4-19.9c6.8-13.2,12.7-28.6,12.7-28.6s-7.5,41.5,12.9,41.5
	c7.5,0,14.9-9.7,18.3-14.6v0.1c0,0,0.2-0.3,0.6-1c0.4-0.6,0.8-1.2,1.2-1.9v-0.2c3-5.2,9.7-17,19.6-36.6
	c12.8-25.3,25.2-56.9,25.2-56.9s1.2,7.8,4.9,20.5c2.2,7.6,7,15.8,10.7,23.9c-3,4.2-4.8,6.6-4.8,6.6l0.1,0.1c-2.4,3.2-5.1,6.6-7.9,10
	c-10.2,12.1-22.3,26-23.9,30c-1.9,4.7-1.5,8.2,2.2,11c2.7,2,7.5,2.4,12.5,2c9.2-0.6,15.5-2.9,18.7-4.3c5-1.8,10.7-4.5,16.1-8.5
	c10-7.4,16-17.8,15.4-31.8c-0.3-7.7-2.8-15.2-5.9-22.4c0.9-1.3,1.8-2.6,2.7-4c15.7-23,27.9-48.3,27.9-48.3s1.2,7.8,4.9,20.5
	c1.9,6.5,5.7,13.5,9.1,20.5c-14.7,12-24,26-27.2,35.1c-5.9,16.9-1.3,24.6,7.4,26.4c3.9,0.8,9.5-1,13.6-2.8
	c5.2-1.7,11.4-4.6,17.2-8.9c10-7.4,19.5-17.6,19-31.5c-0.3-6.4-2-12.6-4.3-18.6c12.5-5.2,28.8-8.2,49.4-5.7
	c44.3,5.2,53.1,32.9,51.4,44.4s-11,17.9-14,19.9c-3.1,1.9-4.1,2.6-3.8,4c0.4,2.1,1.8,2,4.5,1.6c3.7-0.6,23.3-9.5,24.1-30.8
	C512.2,304.6,486.2,274.7,440.1,275L440.1,275z M98.5,390.2c-14.6,16-35.2,22.1-44,16.9C45,401.6,48.7,378,66.7,361
	c11-10.4,25.2-19.9,34.5-25.8c2.1-1.3,5.3-3.2,9.1-5.5c0.6-0.4,1-0.6,1-0.6c0.7-0.4,1.5-0.9,2.3-1.4
	C120.3,352.1,113.9,373.4,98.5,390.2L98.5,390.2z M205.5,317.4c-5.1,12.4-15.8,44.4-22.3,42.6c-5.6-1.5-9-25.7-1.1-49.6
	c4-12,12.4-26.4,17.4-32c8.1-9,16.8-11.9,19-8.3C221.1,275,208.7,309.6,205.5,317.4z M293.8,359.6c-2.2,1.1-4.2,1.9-5.1,1.3
	c-0.7-0.4,0.9-1.9,0.9-1.9s11.1-11.8,15.4-17.3c2.5-3.2,5.5-6.9,8.7-11.1v1.2C313.7,346.2,300,355.7,293.8,359.6L293.8,359.6z
	 M361.9,344.1c-1.6-1.2-1.4-4.9,4-16.4c2.1-4.6,6.9-12.2,15.1-19.5c1,3,1.6,5.9,1.5,8.6C382.4,334.6,369.6,341.3,361.9,344.1z"/>
</svg>
