<?xml version="1.0" encoding="utf-8"?>
<!-- Generator: Adobe Illustrator 24.1.0, SVG Export Plug-In . SVG Version: 6.00 Build 0)  -->
<svg version="1.1" id="Capa_1" xmlns="http://www.w3.org/2000/svg" xmlns:xlink="http://www.w3.org/1999/xlink" x="0px" y="0px"
	 viewBox="0 0 512 512" style="enable-background:new 0 0 512 512;" xml:space="preserve">
<style type="text/css">
	.st0{fill:#252525;}
</style>
<g>
	<g>
		<path class="st0" d="M448,0H64C28.7,0,0,28.7,0,64v384c0,35.3,28.7,64,64,64h384c35.3,0,64-28.7,64-64V64C512,28.6,483.3,0,448,0z
			 M224,384c0,17.7-14.3,32-32,32H96c-17.7,0-32-14.3-32-32V96c0-17.7,14.3-32,32-32h96c17.7,0,32,14.3,32,32V384z M448,256
			c0,17.7-14.3,32-32,32h-96c-17.7,0-32-14.3-32-32V96c0-17.7,14.3-32,32-32h96c17.7,0,32,14.3,32,32V256z"/>
	</g>
</g>
</svg>
