<?xml version="1.0" encoding="utf-8"?>
<!-- Generator: Adobe Illustrator 24.1.0, SVG Export Plug-In . SVG Version: 6.00 Build 0)  -->
<svg version="1.1" id="Layer_1" xmlns="http://www.w3.org/2000/svg" xmlns:xlink="http://www.w3.org/1999/xlink" x="0px" y="0px"
	 viewBox="0 0 512 512" style="enable-background:new 0 0 512 512;" xml:space="preserve">
<g>
	<circle cx="256" cy="256" r="105.7"/>
	<path d="M359.5,0h-207C68.4,0,0,68.4,0,152.5v206.9C0,443.6,68.4,512,152.5,512h206.9c84.1,0,152.5-68.4,152.5-152.5v-207
		C512,68.4,443.6,0,359.5,0z M256,388.4c-73,0-132.4-59.4-132.4-132.4S183,123.6,256,123.6S388.4,183,388.4,256S329,388.4,256,388.4
		z M388.7,156.3c-17.5,0-31.7-14.2-31.7-31.7c0-17.5,14.2-31.7,31.7-31.7c17.5,0,31.7,14.2,31.7,31.7
		C420.4,142.1,406.2,156.3,388.7,156.3z"/>
</g>
</svg>
