<?xml version="1.0" encoding="utf-8"?>
<!-- Generator: Adobe Illustrator 21.0.0, SVG Export Plug-In . SVG Version: 6.00 Build 0)  -->
<svg version="1.1" id="Layer_1" xmlns="http://www.w3.org/2000/svg" xmlns:xlink="http://www.w3.org/1999/xlink" x="0px" y="0px"
	 viewBox="0 0 512 512" style="enable-background:new 0 0 512 512;" xml:space="preserve">
<style type="text/css">
	.st0{fill:#FF6363;}
</style>
<g>
	<path class="st0" d="M359.5,0h-207C68.4,0,0,68.4,0,152.5v206.9C0,443.6,68.4,512,152.5,512h206.9c84.1,0,152.5-68.4,152.5-152.5
		v-207C512,68.4,443.6,0,359.5,0z M479.9,367.9c0,60.3-51.8,112.1-112.1,112.1H144.1C83.8,480,32,428.2,32,367.9V144.1
		C32,83.8,83.8,32,144.1,32h223.6c60.3,0,112.1,51.8,112.1,112.1L479.9,367.9L479.9,367.9z"/>
	<path class="st0" d="M256,123.6c-73,0-132.4,59.4-132.4,132.4S183,388.4,256,388.4S388.4,329,388.4,256S329,123.6,256,123.6z
		 M256,361.7c-58.4,0-105.7-47.3-105.7-105.7S197.6,150.3,256,150.3S361.7,197.6,361.7,256S314.4,361.7,256,361.7z"/>
	<circle class="st0" cx="388.7" cy="124.6" r="31.7"/>
</g>
</svg>
