<?xml version="1.0" encoding="utf-8"?>
<!-- Generator: Adobe Illustrator 21.0.0, SVG Export Plug-In . SVG Version: 6.00 Build 0)  -->
<svg version="1.1" id="Capa_1" xmlns="http://www.w3.org/2000/svg" xmlns:xlink="http://www.w3.org/1999/xlink" x="0px" y="0px"
	 viewBox="0 0 512 512" style="enable-background:new 0 0 512 512;" xml:space="preserve">
<g id="XMLID_801_">
	<g id="XMLID_802_">
		<path d="M100.5,191.2V484H35.1V191.2H100.5 M119.2,164.2H16.4c-4.6,0-8.3,3.7-8.3,8.3v330.2c0,4.6,3.7,8.3,8.3,8.3h102.8
			c4.6,0,8.3-3.7,8.3-8.3V172.4C127.4,167.9,123.7,164.2,119.2,164.2L119.2,164.2z"/>
	</g>
	<g id="XMLID_803_">
		<path d="M67.8,27c22.5,0,40.8,18.3,40.8,40.8s-18.3,40.8-40.8,40.8S27,90.3,27,67.8S45.3,27,67.8,27 M67.8,0C30.4,0,0,30.4,0,67.8
			s30.4,67.8,67.8,67.8s67.8-30.4,67.8-67.8S105.2,0,67.8,0L67.8,0z"/>
	</g>
	<g id="XMLID_804_">
		<path d="M380.6,182.9c23.2,0,42.4,3.8,57,11.4c12.2,6.3,21.7,15.3,28.8,27.4c16.4,27.8,18.6,68,18.6,99.8v162.3h-65.2V342
			c0-23.2-0.7-47.5-9-67.1c-5.3-12.5-13.4-22.3-23.9-29c-10.7-6.8-23.9-10.3-39.1-10.3c-28.4,0-49.7,9.8-63.2,29.1
			c-11.7,16.8-17.1,40.4-17.1,74.4v144.7h-65.2V191.1h61v2.7v69.5l46.9-51.2C320.2,201.2,342.6,182.9,380.6,182.9 M380.6,155.9
			c-41.3,0-71.8,17.7-90.3,37.9v-21.4c0-4.6-3.7-8.3-8.3-8.3h-98.4c-4.6,0-8.3,3.7-8.3,8.3v330.2c0,4.6,3.7,8.3,8.3,8.3h102.6
			c4.6,0,8.3-3.7,8.3-8.3V339.2c0-55.1,15-76.5,53.3-76.5c41.8,0,45.1,34.4,45.1,79.3v160.5c0,4.6,3.7,8.3,8.3,8.3h102.6
			c4.6,0,8.3-3.7,8.3-8.3v-181C512,239.6,496.4,155.9,380.6,155.9L380.6,155.9z"/>
	</g>
</g>
</svg>
