<?xml version="1.0" encoding="utf-8"?>
<!-- Generator: Adobe Illustrator 24.1.0, SVG Export Plug-In . SVG Version: 6.00 Build 0)  -->
<svg version="1.1" id="Capa_1" xmlns="http://www.w3.org/2000/svg" xmlns:xlink="http://www.w3.org/1999/xlink" x="0px" y="0px"
	 viewBox="0 0 512 512" style="enable-background:new 0 0 512 512;" xml:space="preserve">
<g id="XMLID_801_">
	<path id="XMLID_802_" d="M119.2,164.2H16.4c-4.6,0-8.3,3.7-8.3,8.3v330.2c0,4.6,3.7,8.3,8.3,8.3h102.8c4.6,0,8.3-3.7,8.3-8.3V172.4
		C127.4,167.9,123.7,164.2,119.2,164.2z"/>
	<path id="XMLID_803_" d="M67.8,0C30.4,0,0,30.4,0,67.8s30.4,67.8,67.8,67.8s67.8-30.4,67.8-67.8S105.2,0,67.8,0z"/>
	<path id="XMLID_804_" d="M380.6,155.9c-41.3,0-71.8,17.7-90.3,37.9v-21.4c0-4.6-3.7-8.3-8.3-8.3h-98.4c-4.6,0-8.3,3.7-8.3,8.3
		v330.2c0,4.6,3.7,8.3,8.3,8.3h102.6c4.6,0,8.3-3.7,8.3-8.3V339.2c0-55.1,15-76.5,53.3-76.5c41.8,0,45.1,34.4,45.1,79.3v160.5
		c0,4.6,3.7,8.3,8.3,8.3h102.6c4.6,0,8.3-3.7,8.3-8.3v-181C512,239.6,496.4,155.9,380.6,155.9z"/>
</g>
</svg>
