<?xml version="1.0" encoding="utf-8"?>
<!-- Generator: Adobe Illustrator 24.1.0, SVG Export Plug-In . SVG Version: 6.00 Build 0)  -->
<svg version="1.1" id="Capa_1" xmlns="http://www.w3.org/2000/svg" xmlns:xlink="http://www.w3.org/1999/xlink" x="0px" y="0px"
	 viewBox="0 0 512 512" style="enable-background:new 0 0 512 512;" xml:space="preserve">
<path d="M512,103c-32.2,1.5-31.5,1.4-35.1,1.7L496,50.2c0,0-59.5,21.9-74.6,25.8c-39.6-35.6-98.6-37.2-140.7-11.3
	c-34.5,21.2-53,57.6-46.8,100.2c-67.1-9.3-123.7-41.1-168.4-94.8l-14.1-17L40.7,72.5C27.4,97,23,125,28.3,151.3
	c2.2,10.8,5.9,21.1,11,30.8l-12.1-4.7l-1.4,20.2c-1.5,20.6,5.4,44.6,18.3,64.2c3.6,5.5,8.3,11.6,14.3,17.6l-6.3-1l7.6,23.2
	c10,30.5,30.9,54.1,58,67.2c-27,11.5-48.9,18.8-84.8,30.6L0,410.3l30.3,16.6c11.6,6.3,52.4,27.4,92.8,33.8
	c89.8,14,190.9,2.6,258.9-58.7c57.3-51.6,76.1-125,72.2-201.4c-0.6-11.6,2.6-22.6,8.9-31.1C475.9,152.5,511.9,103.1,512,103z"/>
</svg>
