<?xml version="1.0" encoding="utf-8"?>
<!-- Generator: Adobe Illustrator 21.0.0, SVG Export Plug-In . SVG Version: 6.00 Build 0)  -->
<svg version="1.1" id="Capa_1" xmlns="http://www.w3.org/2000/svg" xmlns:xlink="http://www.w3.org/1999/xlink" x="0px" y="0px"
	 viewBox="0 0 60 60" style="enable-background:new 0 0 60 60;" xml:space="preserve">
<style type="text/css">
	.st0{fill:#00FF6C;}
</style>
<g>
	<path class="st0" d="M42.6,0H17.4C15,0,13,2,13,4.4v51.2c0,2.4,2,4.4,4.4,4.4h25.2c2.4,0,4.4-2,4.4-4.4V4.4C47,2,45,0,42.6,0z
		 M15,8h30v38H15V8z M17.4,2h25.2C43.9,2,45,3.1,45,4.4V6H15V4.4C15,3.1,16.1,2,17.4,2z M42.6,58H17.4c-1.3,0-2.4-1.1-2.4-2.4V48h30
		v7.6C45,56.9,43.9,58,42.6,58z"/>
	<path class="st0" d="M30,49c-2.2,0-4,1.8-4,4s1.8,4,4,4s4-1.8,4-4S32.2,49,30,49z M30,55c-1.1,0-2-0.9-2-2s0.9-2,2-2s2,0.9,2,2
		S31.1,55,30,55z"/>
	<path class="st0" d="M26,5h4c0.6,0,1-0.4,1-1s-0.4-1-1-1h-4c-0.6,0-1,0.4-1,1S25.4,5,26,5z"/>
	<path class="st0" d="M33,5h1c0.6,0,1-0.4,1-1s-0.4-1-1-1h-1c-0.6,0-1,0.4-1,1S32.4,5,33,5z"/>
	<path class="st0" d="M56.6,4.6c-0.4-0.4-1-0.4-1.4,0s-0.4,1,0,1.4c3.7,3.7,3.7,9.8,0,13.6c-0.4,0.4-0.4,1,0,1.4
		c0.2,0.2,0.5,0.3,0.7,0.3s0.5-0.1,0.7-0.3C61.1,16.4,61.1,9.1,56.6,4.6z"/>
	<path class="st0" d="M52.4,6.8c-0.4-0.4-1-0.4-1.4,0s-0.4,1,0,1.4c1.2,1.2,1.9,2.9,1.9,4.6s-0.7,3.4-1.9,4.6c-0.4,0.4-0.4,1,0,1.4
		c0.2,0.2,0.5,0.3,0.7,0.3s0.5-0.1,0.7-0.3c1.6-1.6,2.5-3.8,2.5-6.1S54,8.5,52.4,6.8z"/>
	<path class="st0" d="M4.8,6c0.4-0.4,0.4-1,0-1.4s-1-0.4-1.4,0c-4.5,4.5-4.5,11.9,0,16.4c0.2,0.2,0.5,0.3,0.7,0.3s0.5-0.1,0.7-0.3
		c0.4-0.4,0.4-1,0-1.4C1.1,15.8,1.1,9.7,4.8,6z"/>
	<path class="st0" d="M9,6.6c-0.4-0.4-1-0.4-1.4,0C6,8.2,5.1,10.3,5.1,12.6s0.9,4.4,2.5,6.1C7.8,18.9,8,19,8.3,19s0.5-0.1,0.7-0.3
		c0.4-0.4,0.4-1,0-1.4c-1.2-1.2-1.9-2.9-1.9-4.6S7.8,9.2,9,8C9.4,7.6,9.4,7,9,6.6z"/>
</g>
</svg>
