<?xml version="1.0" encoding="utf-8"?>
<!-- Generator: Adobe Illustrator 21.0.0, SVG Export Plug-In . SVG Version: 6.00 Build 0)  -->
<svg version="1.1" id="Capa_1" xmlns="http://www.w3.org/2000/svg" xmlns:xlink="http://www.w3.org/1999/xlink" x="0px" y="0px"
	 viewBox="0 0 512 512" style="enable-background:new 0 0 512 512;" xml:space="preserve">
<style type="text/css">
	.st0{fill:#00FF6C;}
</style>
<path class="st0" d="M414,398.3c-5.5,0-10,4.5-10,10V482c0,5.5-4.5,10-10,10H30c-5.5,0-10-4.5-10-10V30c0-5.5,4.5-10,10-10h364
	c5.5,0,10,4.5,10,10v108.8c0,5.5,4.5,10,10,10s10-4.5,10-10V30c0-16.5-13.5-30-30-30H30C13.5,0,0,13.5,0,30v452
	c0,16.5,13.5,30,30,30h364c16.5,0,30-13.5,30-30v-73.7C424,402.8,419.5,398.3,414,398.3z"/>
<path class="st0" d="M304,146c0-50.7-41.3-92-92-92s-92,41.3-92,92c0,26.3,11.1,50.1,28.9,66.9c0.3,0.4,0.7,0.7,1.1,1
	c16.4,15,38.2,24.1,62,24.1s45.7-9.2,62-24.1c0.4-0.3,0.7-0.6,1.1-1C292.9,196.1,304,172.3,304,146z M212,74c39.7,0,72,32.3,72,72
	c0,16-5.2,30.7-14.1,42.7c-7.4-10.9-17.6-19.4-29.5-24.7c4.7-6.1,7.5-13.7,7.5-22v-6.5c0-19.9-16.1-36-36-36s-36,16.1-36,36v6.5
	c0,8.3,2.8,15.9,7.5,22c-11.9,5.3-22.1,13.8-29.5,24.7c-8.8-12-14.1-26.7-14.1-42.7C140,106.3,172.3,74,212,74z M196,142v-6.5
	c0-8.8,7.2-16,16-16s16,7.2,16,16v6.5c0,8.8-7.2,16-16,16S196,150.8,196,142z M168.5,203.3c8.8-15.6,25.2-25.3,43.5-25.3
	s34.7,9.7,43.5,25.3c-12.1,9.2-27.2,14.7-43.5,14.7S180.6,212.5,168.5,203.3z"/>
<path class="st0" d="M266,438h-54c-5.5,0-10,4.5-10,10s4.5,10,10,10h54c5.5,0,10-4.5,10-10S271.5,438,266,438z"/>
<path class="st0" d="M266,382H124c-5.5,0-10,4.5-10,10s4.5,10,10,10h142c5.5,0,10-4.5,10-10S271.5,382,266,382z"/>
<path class="st0" d="M266,326H124c-5.5,0-10,4.5-10,10s4.5,10,10,10h142c5.5,0,10-4.5,10-10S271.5,326,266,326z"/>
<path class="st0" d="M88.4,272.9c-1.9-1.9-4.4-2.9-7.1-2.9c-2.6,0-5.2,1.1-7.1,2.9c-1.9,1.9-2.9,4.4-2.9,7.1s1.1,5.2,2.9,7.1
	c1.9,1.9,4.4,2.9,7.1,2.9c2.6,0,5.2-1.1,7.1-2.9c1.9-1.9,2.9-4.4,2.9-7.1S90.2,274.8,88.4,272.9z"/>
<path class="st0" d="M88.4,328.9c-1.9-1.9-4.4-2.9-7.1-2.9c-2.6,0-5.2,1.1-7.1,2.9c-1.9,1.9-2.9,4.4-2.9,7.1s1.1,5.2,2.9,7.1
	c1.9,1.9,4.4,2.9,7.1,2.9c2.6,0,5.2-1.1,7.1-2.9c1.9-1.9,2.9-4.4,2.9-7.1S90.2,330.8,88.4,328.9z"/>
<path class="st0" d="M81.3,382c-2.6,0-5.2,1.1-7.1,2.9c-1.9,1.9-2.9,4.4-2.9,7.1s1.1,5.2,2.9,7.1c1.9,1.9,4.4,2.9,7.1,2.9
	c2.6,0,5.2-1.1,7.1-2.9c1.9-1.9,2.9-4.4,2.9-7.1s-1.1-5.2-2.9-7.1C86.5,383.1,83.9,382,81.3,382z"/>
<path class="st0" d="M266,270H124c-5.5,0-10,4.5-10,10s4.5,10,10,10h142c5.5,0,10-4.5,10-10S271.5,270,266,270z"/>
<path class="st0" d="M491,130.3c-9.7-5.6-21-7.1-31.9-4.2c-10.8,2.9-19.9,9.9-25.5,19.6l-125.8,218c-0.7,1.2-1.1,2.5-1.3,3.9
	l-8.9,79.3c-0.4,3.9,1.5,7.8,4.9,9.8c1.6,0.9,3.3,1.3,5,1.3c2.1,0,4.2-0.7,5.9-1.9l64.3-47.3c1.1-0.8,2-1.9,2.7-3.1l125.8-218
	C518,167.6,511.1,141.9,491,130.3z M324.7,385l28.9,16.7l-33.6,24.7L324.7,385z M368.2,387l-38.1-22l101-174.9l38.1,22L368.2,387z
	 M489.1,177.7l-9.9,17.1l-38.1-22l9.9-17.1c2.9-5.1,7.7-8.7,13.4-10.2c5.7-1.5,11.6-0.7,16.7,2.2c5.1,2.9,8.7,7.7,10.2,13.4
	C492.8,166.7,492,172.6,489.1,177.7z"/>
</svg>
