<?xml version="1.0" encoding="utf-8"?>
<!-- Generator: Adobe Illustrator 21.0.0, SVG Export Plug-In . SVG Version: 6.00 Build 0)  -->
<svg version="1.1" id="Capa_1" xmlns="http://www.w3.org/2000/svg" xmlns:xlink="http://www.w3.org/1999/xlink" x="0px" y="0px"
	 viewBox="0 0 512 512" style="enable-background:new 0 0 512 512;" xml:space="preserve">
<style type="text/css">
	.st0{fill:#00FF6C;}
</style>
<g id="Solid">
	<path class="st0" d="M48,148.3c0-4.3,1.1-8.4,3.3-12.1l49.6-85c1.5-2.6,1.8-5.8,0.9-8.6l-1.1-3.4c-1.8-5.5-7.8-8.5-13.3-6.7
		c-2.4,0.8-4.5,2.5-5.8,4.7l-46.3,79.3c-2.1,3.7-3.3,7.8-3.3,12.1v176.2c4.6-4.7,10-8.6,16-11.4L48,148.3z"/>
	<path class="st0" d="M440,304H328c-8.5,0-16.8,2.9-23.5,8.2l-15,12c-19.6,15.7-47.4,15.7-67,0l-15-12c-6.7-5.3-15-8.2-23.5-8.2H72
		c-22.1,0-40,17.9-40,40v80c0,30.9,25.1,56,56,56h70c25.7,0,48.1-17.5,54.3-42.4l16-64c3.8-15.3,19.3-24.5,34.6-20.7
		c10.2,2.6,18.2,10.5,20.7,20.7l16,64c6.2,24.9,28.6,42.4,54.3,42.4h70c30.9,0,56-25.1,56-56v-80C480,321.9,462.1,304,440,304
		L440,304z M66.3,386.3l48-48l11.3,11.3l-48,48L66.3,386.3z M82.3,418.3l80-80l11.3,11.3l-80,80L82.3,418.3z M141.7,429.7
		l-11.3-11.3l48-48l11.3,11.3L141.7,429.7z M322.3,394.3l48-48l11.3,11.3l-48,48L322.3,394.3z M349.7,437.7l-11.3-11.3l80-80
		l11.3,11.3L349.7,437.7z M397.7,437.7l-11.3-11.3l48-48l11.3,11.3L397.7,437.7z"/>
	<path class="st0" d="M476.7,116.6l-46.3-79.3c-2.9-5-9.4-6.7-14.4-3.8c-0.3,0.2-0.6,0.4-0.9,0.6c-1.8,1.3-3.1,3.1-3.8,5.2l-1.1,3.4
		c-1,2.9-0.6,6,0.9,8.6l49.6,85c2.1,3.7,3.3,7.8,3.3,12.1v145.1c6,2.8,11.4,6.7,16,11.4V128.6C480,124.4,478.9,120.2,476.7,116.6
		L476.7,116.6z"/>
</g>
</svg>
