<?xml version="1.0" encoding="utf-8"?>
<!-- Generator: Adobe Illustrator 21.0.0, SVG Export Plug-In . SVG Version: 6.00 Build 0)  -->
<svg version="1.1" id="Layer_1" xmlns="http://www.w3.org/2000/svg" xmlns:xlink="http://www.w3.org/1999/xlink" x="0px" y="0px"
	 viewBox="0 0 159.3 181" style="enable-background:new 0 0 159.3 181;" xml:space="preserve">
<style type="text/css">
	.st0{fill:#285A8C;stroke:#285A8C;stroke-width:0.3;stroke-miterlimit:10;}
</style>
<g>
	<g>
		<g>
			<path class="st0" d="M159.3,0l-17,12.7l-17.1,39.8h-13.6l-5.4-11.7h3.5c6.4,0,11.7-5.2,11.7-11.6V17.5h5.8V0h-17.5v17.5h5.8v11.6
				c0,3.2-2.6,5.8-5.8,5.8h-6.2L96,18.8l8.9-4.5L75.6,1.8l-6.9,24.1C68.5,11.6,56.8,0,42.5,0C28,0,16.2,11.8,16.2,26.3
				c0,8.8,4.4,17,11.7,21.8v4.4h-7.1l-0.5,2.4c-1.4,7.4-1.5,14.9-0.4,22.5L0,112.9l22,5v36.8h29.2V181h70v-40.7
				c20.4-14.5,32.1-37.7,32.1-62.5V67.2c0-4-0.4-8.1-1.1-12.2l-0.4-2.4h-5.7l13.1-31.5L159.3,0L159.3,0z M115.5,11.6V5.8h5.8v5.8
				H115.5z M105.1,52.4h-11l-5.3-11.7h11L105.1,52.4z M79.5,9.8l11.6,5l-2.7,1.3l8.7,18.8h-11L79,19.3l-2.6,1.3L79.5,9.8z
				 M87.7,52.4h-13v-5.8c0-3.2,2.6-5.9,5.8-5.9h1.8l0,0L87.7,52.4z M76.2,27.3l3.5,7.8c-6.1,0.4-10.9,5.4-10.9,11.6v5.8H57.1v-4.4
				c5.8-3.9,9.8-10,11.1-16.8L76.2,27.3z M22.2,26.2c0-11.3,9.2-20.4,20.4-20.4S63,15,63,26.2c0,7.2-3.9,14-10.2,17.7l-1.5,0.8v7.7
				h-5.8v-18c3.4-1.2,5.8-4.4,5.8-8.2c0-4.8-3.9-8.8-8.8-8.8s-8.8,3.9-8.8,8.8c0,3.8,2.4,7,5.8,8.2v18h-5.8v-7.7l-1.5-0.8
				C26.1,40.2,22.2,33.5,22.2,26.2z M42.6,29.1c-1.6,0-2.9-1.3-2.9-2.9s1.3-2.9,2.9-2.9c1.6,0,2.9,1.3,2.9,2.9S44.2,29.1,42.6,29.1z
				 M147,58.3c0.4,2.9,0.6,5.9,0.6,8.8v10.7c0,23.4-11.5,45.3-30.8,58.6l-1.3,0.9v37.9H57.1v-26.3H27.9v-35.8L9,108.8l17.1-30.5
				l-0.2-1c-1.1-6.4-1.1-13.2-0.2-19.1h2.2h29.2L147,58.3L147,58.3z M139.9,52.4h-8.2l14.5-33.9l6.5,3.2L139.9,52.4z M153.5,15.7
				l-3.2-1.6l3.2-2.4V15.7z"/>
			<path class="st0" d="M48.4,75.8c-4.8,0-8.8-2.9-8.8-8.8h-5.8c0,8.8,6.5,14.6,14.6,14.6S63,75.8,63,67h-5.8
				C57.2,72.9,53.3,75.8,48.4,75.8z"/>
		</g>
	</g>
</g>
</svg>
