<?xml version="1.0" encoding="utf-8"?>
<!-- Generator: Adobe Illustrator 21.0.0, SVG Export Plug-In . SVG Version: 6.00 Build 0)  -->
<svg version="1.1" id="Capa_1" xmlns="http://www.w3.org/2000/svg" xmlns:xlink="http://www.w3.org/1999/xlink" x="0px" y="0px"
	 viewBox="0 0 52.4 49.6" style="enable-background:new 0 0 52.4 49.6;" xml:space="preserve">
<style type="text/css">
	.st0{fill:#285A8C;}
</style>
<g>
	<path class="st0" d="M33,48.3c-0.9-0.7-1-1.7-1-1.7l-0.3-2.2H20.8l-0.3,2.2c0,0-0.1,1-1,1.7s-1.6,1.2-0.9,1.3c0.7,0.1,7.2,0,7.7,0
		s7,0.1,7.7,0C34.6,49.6,33.9,49,33,48.3z"/>
	<g>
		<path class="st0" d="M14,30.9c2.9,0,3.3-0.7,4.2-3.6c1.7-4.6,9.6,1.2,4.7,3.2C18,32.5,11.1,31,14,30.9z"/>
		<path class="st0" d="M43.7,0.6C42.3-0.5,40,0,38.5,1.8L23.6,22.9c-1.5,1.8-1.5,1.5-0.1,2.6s1.1,1.2,2.5-0.6l17.5-19
			C45.1,4.2,45.1,1.8,43.7,0.6z M39.9,3.2c0,0-0.2-0.3-0.9-0.8c1.1-1.8,3.2-1.5,3.2-1.5C40.2,2.1,39.9,3.2,39.9,3.2z"/>
	</g>
	<path class="st0" d="M50.3,7.8h-6.5l-2.9,3.1h8.4v25.2H3.2V10.9H30l2.2-3.1H2.1C0.9,7.8,0,8.7,0,9.9v30.4c0,1.2,0.9,2.1,2.1,2.1
		h48.2c1.2,0,2.1-0.9,2.1-2.1V9.9C52.4,8.7,51.5,7.8,50.3,7.8z"/>
</g>
</svg>
