<?xml version="1.0" encoding="utf-8"?>
<!-- Generator: Adobe Illustrator 21.0.0, SVG Export Plug-In . SVG Version: 6.00 Build 0)  -->
<svg version="1.1" id="Capa_1" xmlns="http://www.w3.org/2000/svg" xmlns:xlink="http://www.w3.org/1999/xlink" x="0px" y="0px"
	 viewBox="0 0 200 103.4" style="enable-background:new 0 0 200 103.4;" xml:space="preserve">
<style type="text/css">
	.st0{fill:#002C9B;}
	.st1{fill:none;stroke:#002C9B;stroke-width:5;stroke-linecap:round;stroke-linejoin:round;stroke-miterlimit:10;}
</style>
<g id="XMLID_1_">
	<path id="XMLID_2_" class="st0" d="M11.1,78.4c1.8,0.9,2.8,2.3,2.8,4.4c0,1.6-0.5,2.9-1.6,3.9S9.8,88.2,8,88.2
		c-0.8,0-1.5-0.1-2.1-0.3c-0.4,0.2-0.7,0.5-0.9,0.8c-0.2,0.3-0.3,0.7-0.3,1c0,1.1,0.9,1.7,2.6,1.7h2.6c1.6,0,2.9,0.4,3.8,1.2
		s1.4,1.8,1.4,3c0,1.5-0.6,2.6-1.8,3.4s-2.9,1.2-5.3,1.2s-4.1-0.4-5.2-1.1c-1-0.7-1.6-1.9-1.6-3.5h1.7c0,0.8,0.2,1.4,0.5,1.9
		s0.8,0.8,1.5,1s1.7,0.3,3,0.3c1.8,0,3.1-0.3,4-0.8c0.8-0.5,1.2-1.3,1.2-2.3c0-0.9-0.3-1.5-1-2S10.6,93,9.4,93H6.9
		c-1.3,0-2.3-0.3-3-0.8s-1-1.2-1-2c0-0.5,0.2-1,0.5-1.5s0.7-0.9,1.3-1.2c-0.9-0.5-1.6-1.1-2.1-1.8C2.2,85,1.9,84,1.9,83
		c0-1.6,0.5-3,1.6-4s2.5-1.5,4.3-1.5c2,0,3.4-0.1,4.3-0.2s1.8-0.4,2.8-0.8l0.6,1.7C14.6,78.2,13.1,78.3,11.1,78.4z M4.8,79.7
		c-0.7,0.7-1,1.7-1,3s0.4,2.3,1.1,3s1.7,1.1,3,1.1s2.3-0.4,3-1.1s1.1-1.7,1.1-3s-0.3-2.3-1-3s-1.7-1.1-3.1-1.1S5.5,79,4.8,79.7z"/>
	<path id="XMLID_5_" class="st0" d="M27,77.4l-0.3,1.7c-0.5-0.1-0.9-0.2-1.4-0.2c-1.1,0-2,0.4-2.7,1.2c-0.7,0.8-1.2,2.1-1.7,3.8v9.9
		h-1.8V77.6h1.5l0.2,3.6c0.4-1.3,1-2.3,1.8-3s1.7-1,2.8-1C26,77.2,26.5,77.3,27,77.4z"/>
	<path id="XMLID_7_" class="st0" d="M40.4,92c0.2,0.4,0.6,0.7,1,0.8L41,94.1c-0.7-0.2-1.3-0.5-1.7-0.9s-0.7-1-0.8-1.8
		c-1.2,1.8-2.9,2.7-5.1,2.7c-1.5,0-2.8-0.4-3.7-1.3s-1.3-2-1.3-3.5c0-1.7,0.6-3,1.8-3.9S33,84,35.1,84h3.1v-1.5
		c0-1.3-0.3-2.2-0.9-2.8c-0.6-0.6-1.5-0.9-2.9-0.9c-1.2,0-2.7,0.3-4.4,0.9l-0.5-1.4c1.8-0.7,3.5-1.1,5.1-1.1c3.5,0,5.3,1.7,5.3,5.1
		v7.8C40.1,91,40.2,91.6,40.4,92z M38.3,89.8v-4.4h-2.8c-1.7,0-2.9,0.3-3.8,1c-0.9,0.6-1.3,1.6-1.3,2.9c0,1.1,0.3,2,0.9,2.6
		s1.4,0.9,2.5,0.9C35.8,92.7,37.3,91.7,38.3,89.8z"/>
	<path id="XMLID_10_" class="st0" d="M57.7,79.4c1,1.5,1.5,3.5,1.5,6.2c0,2.6-0.5,4.7-1.6,6.2S55,94.1,53,94.1c-1,0-1.8-0.2-2.6-0.6
		s-1.4-0.9-2-1.6v8l-1.8,0.2V77.6h1.5l0.2,2.4c0.6-0.8,1.3-1.5,2.2-2c0.8-0.5,1.8-0.7,2.8-0.7C55.3,77.2,56.8,78,57.7,79.4z
		 M56.1,90.8c0.8-1.2,1.2-2.9,1.2-5.2c0-4.6-1.4-6.9-4.3-6.9c-1,0-1.8,0.2-2.5,0.7s-1.4,1.2-2,2V90c0.5,0.8,1.1,1.4,1.9,1.8
		s1.5,0.7,2.4,0.7C54.2,92.6,55.3,92,56.1,90.8z"/>
	<path id="XMLID_13_" class="st0" d="M75.1,78.6c0.8,0.9,1.2,2.1,1.2,3.6v11.6h-1.8V82.4c0-2.5-1-3.7-3.1-3.7c-1,0-1.9,0.3-2.7,0.9
		c-0.8,0.6-1.6,1.4-2.3,2.5v11.7h-1.8V71l1.8-0.2v9.5c1.4-2,3.2-3,5.4-3C73.2,77.2,74.3,77.7,75.1,78.6z"/>
	<path id="XMLID_15_" class="st0" d="M84.6,70.8c0.2,0.2,0.4,0.6,0.4,0.9s-0.1,0.7-0.4,0.9S84,73,83.6,73s-0.7-0.1-1-0.4
		s-0.4-0.6-0.4-0.9s0.1-0.7,0.4-0.9s0.6-0.4,1-0.4C84,70.5,84.3,70.6,84.6,70.8z M82.7,93.8V77.6h1.8v16.2H82.7z"/>
	<path id="XMLID_18_" class="st0" d="M99.1,77.6c0.7,0.3,1.4,0.7,2.1,1.3l-0.9,1.2c-0.5-0.5-1.1-0.8-1.7-1s-1.2-0.3-1.9-0.3
		c-1.5,0-2.7,0.6-3.7,1.8c-0.9,1.2-1.4,2.9-1.4,5.2c0,2.3,0.4,3.9,1.3,5.1s2.1,1.7,3.6,1.7c0.7,0,1.4-0.1,2-0.3
		c0.6-0.2,1.2-0.6,1.8-1.1l0.9,1.2c-1.4,1.2-2.9,1.7-4.6,1.7c-1.4,0-2.6-0.3-3.6-1s-1.8-1.6-2.4-2.9s-0.9-2.7-0.9-4.5
		c0-1.7,0.3-3.2,0.9-4.5s1.4-2.3,2.4-3s2.2-1.1,3.6-1.1C97.6,77.2,98.4,77.4,99.1,77.6z"/>
	<path id="XMLID_20_" class="st0" d="M124,73.5c1,0.9,1.4,2,1.4,3.3c0,1.2-0.4,2.2-1.2,3.1c-0.8,0.9-2,1.7-3.6,2.6l6.4,5.9
		c0.9-1.9,1.6-3.8,2-5.9l1.7,0.5c-0.7,2.5-1.5,4.6-2.6,6.5l3.8,3.5l-1.3,1.1l-3.5-3.3c-0.9,1.1-1.9,1.9-3,2.4
		c-1.1,0.6-2.4,0.8-4,0.8c-1.2,0-2.3-0.2-3.3-0.7s-1.8-1.1-2.3-2c-0.6-0.9-0.9-1.8-0.9-3c0-1.3,0.4-2.5,1.1-3.4
		c0.7-1,1.9-1.9,3.3-2.7c-1.1-1.1-1.9-2-2.4-2.7c-0.5-0.8-0.7-1.6-0.7-2.6c0-1.4,0.5-2.5,1.4-3.4s2.2-1.3,3.8-1.3
		C121.8,72.2,123,72.6,124,73.5z M116.5,85.7c-0.6,0.8-0.9,1.7-0.9,2.8c0,1.3,0.4,2.3,1.3,3.1s2,1.2,3.5,1.2c1.2,0,2.3-0.2,3.2-0.7
		s1.7-1.2,2.5-2.1l-6.8-6.5C118.1,84.1,117.1,84.8,116.5,85.7z M117.8,74.6c-0.6,0.6-0.9,1.4-0.9,2.3c0,0.8,0.2,1.5,0.6,2.1
		s1.1,1.5,2.2,2.5c1.4-0.8,2.4-1.5,3.1-2.2s1-1.5,1-2.4c0-1-0.3-1.8-0.9-2.4s-1.4-0.9-2.4-0.9C119.3,73.6,118.4,73.9,117.8,74.6z"/>
	<path id="XMLID_24_" class="st0" d="M157.1,93.8l-3.6-14.5l-3.7,14.5h-2.4l-4.1-16.2h1.9l3.5,14.8l3.8-14.8h2l3.7,14.8l3.4-14.8
		h1.8l-4,16.2H157.1z"/>
	<path id="XMLID_26_" class="st0" d="M178.7,86.4h-10.8c0.1,2.1,0.6,3.7,1.5,4.7s2.1,1.5,3.5,1.5c0.8,0,1.6-0.1,2.2-0.4
		c0.7-0.3,1.4-0.7,2.1-1.2l0.8,1.1c-0.8,0.7-1.6,1.2-2.5,1.5c-0.8,0.3-1.8,0.5-2.8,0.5c-2.1,0-3.8-0.7-5-2.2s-1.8-3.5-1.8-6.1
		c0-1.7,0.3-3.2,0.8-4.5s1.3-2.3,2.3-3s2.1-1.1,3.4-1.1c2.1,0,3.6,0.7,4.7,2.1c1.1,1.4,1.6,3.3,1.6,5.7
		C178.7,85.5,178.7,86,178.7,86.4z M177,84.5c0-1.8-0.4-3.2-1.1-4.3c-0.8-1-1.9-1.5-3.4-1.5c-1.3,0-2.4,0.5-3.2,1.5
		s-1.3,2.6-1.4,4.7h9.1L177,84.5L177,84.5z"/>
	<path id="XMLID_29_" class="st0" d="M194.9,79.4c1,1.4,1.5,3.5,1.5,6.2c0,2.6-0.5,4.7-1.6,6.2s-2.6,2.3-4.5,2.3
		c-1,0-1.9-0.2-2.6-0.7s-1.5-1-2-1.7l-0.2,2h-1.6V71l1.8-0.2v9.1c1.3-1.7,2.9-2.6,4.9-2.6C192.5,77.2,193.9,78,194.9,79.4z
		 M193.4,90.9c0.8-1.2,1.2-2.9,1.2-5.3c0-4.6-1.5-6.9-4.4-6.9c-1,0-1.8,0.2-2.5,0.7s-1.4,1.2-2,2.1v8.6c0.5,0.8,1.1,1.4,1.9,1.9
		c0.7,0.5,1.5,0.7,2.4,0.7C191.5,92.6,192.6,92,193.4,90.9z"/>
</g>
<polygon id="XMLID_1500_" class="st1" points="153.5,63.2 193.8,63.2 173.7,3.7 "/>
<polyline id="XMLID_1494_" class="st1" points="140.7,63.2 100.4,4.4 100.4,63.2 100.4,4.4 140.7,63.2 140.7,3.7 "/>
<g id="XMLID_1492_">
	<line id="XMLID_1490_" class="st1" x1="57.5" y1="3.7" x2="57.5" y2="63.2"/>
	<line id="XMLID_1497_" class="st1" x1="72.6" y1="33.4" x2="57.5" y2="33.4"/>
	<polyline id="XMLID_1499_" class="st1" points="59.9,63.2 57.5,63.2 87.6,63.2 	"/>
	<polyline id="XMLID_1498_" class="st1" points="57.5,6.4 57.5,3.7 87.6,3.7 	"/>
</g>
<polyline id="XMLID_1495_" class="st1" points="4.4,63.2 4.4,3.7 25,63.2 44.7,3.7 44.7,63.2 "/>
</svg>
