<?xml version="1.0" encoding="utf-8"?>
<!-- Generator: Adobe Illustrator 21.0.0, SVG Export Plug-In . SVG Version: 6.00 Build 0)  -->
<svg version="1.1" id="Capa_1" xmlns="http://www.w3.org/2000/svg" xmlns:xlink="http://www.w3.org/1999/xlink" x="0px" y="0px"
	 viewBox="0 0 247 209.8" style="enable-background:new 0 0 247 209.8;" xml:space="preserve">
<style type="text/css">
	.st0{fill:#285A8C;}
</style>
<g>
	<g>
		<path class="st0" d="M16.8,165.3v40c0,2.4,2,4.5,4.5,4.5h31c2.4,0,4.5-2,4.5-4.5v-70.4l-22.5,22.5
			C29.4,162.1,23.3,164.8,16.8,165.3z"/>
		<path class="st0" d="M72.1,134.4v71c0,2.4,2,4.5,4.5,4.5h31c2.4,0,4.5-2,4.5-4.5v-41.8c-7.1-0.2-13.7-2.9-18.6-7.9L72.1,134.4z"/>
		<path class="st0" d="M127.4,159.2v46.2c0,2.4,2,4.5,4.5,4.5h31c2.4,0,4.5-2,4.5-4.5v-85.2l-35.6,35.4
			C130.5,157,129,158.1,127.4,159.2z"/>
		<path class="st0" d="M219.6,67.7l-36.9,36.9v100.7c0,2.4,2,4.5,4.5,4.5h31c2.4,0,4.5-2,4.5-4.5V70.5c-1-0.9-1.8-1.6-2.3-2.1
			L219.6,67.7z"/>
		<path class="st0" d="M245,2.4c-1.5-1.6-3.7-2.4-6.5-2.4c-0.3,0-0.6,0-0.8,0c-14.4,0.7-28.8,1.4-43.2,2c-1.9,0.1-4.6,0.2-6.6,2.3
			c-0.7,0.7-1.2,1.4-1.6,2.3c-2.1,4.6,0.9,7.6,2.3,9l3.6,3.7c2.5,2.5,5,5.1,7.6,7.6L112.7,114L73.4,74.9c-2.3-2.3-5.5-3.7-8.8-3.7
			s-6.4,1.3-8.8,3.7L3.7,127c-4.9,4.9-4.9,12.7,0,17.6l2.3,2.3c2.3,2.3,5.5,3.7,8.8,3.7s6.4-1.3,8.8-3.7l41-41l39.1,39.1
			c2.3,2.3,5.5,3.7,8.8,3.7s6.4-1.3,8.8-3.7l98.3-98.3l11.1,11.1c1.3,1.3,3.1,3.1,5.9,3.1c1.2,0,2.3-0.3,3.6-1
			c0.8-0.5,1.5-1,2.1-1.6c2.2-2.2,2.6-5,2.7-7.2c0.4-9.3,0.9-18.7,1.3-28.1L247,8.9C247.2,6.3,246.5,4,245,2.4z"/>
	</g>
</g>
</svg>
