<?xml version="1.0" encoding="utf-8"?>
<!-- Generator: Adobe Illustrator 21.0.0, SVG Export Plug-In . SVG Version: 6.00 Build 0)  -->
<svg version="1.1" id="Capa_1" xmlns="http://www.w3.org/2000/svg" xmlns:xlink="http://www.w3.org/1999/xlink" x="0px" y="0px"
	 viewBox="0 0 512 512" style="enable-background:new 0 0 512 512;" xml:space="preserve">
<style type="text/css">
	.st0{fill:#C1C1C1;}
	.st1{fill:#757575;}
	.st2{fill:url(#SVGID_1_);}
	.st3{fill:url(#SVGID_2_);}
</style>
<g>
	<path class="st0" d="M164.5,385.7h16.6v84.5c0,22.3-9.8,37.8-32.7,37.8c-6.7,0.2-13.5-1-20-3.1v-16.2c5.5,2,11.2,3.3,17.2,3.1
		c14.1,0,19-8.4,19-20.4V385.7z"/>
	<path class="st0" d="M211.3,379.1c5.7-0.4,10.6,3.9,11,9.6c0,0.4,0,1,0,1.4c0,6.1-4.9,11-11,11s-11-4.9-11-11l0,0
		c-0.4-5.7,3.9-10.6,9.6-11C210.5,379.1,210.9,379.1,211.3,379.1z M203.4,414.7h15.9v92.4h-15.9V414.7z"/>
	<path class="st0" d="M243.2,414.7h15.5v16.4c5.3-10.8,14.7-18.6,32.7-17.6V429c-20.4-2-32.7,4.1-32.7,23.7v54.6h-15.5V414.7z"/>
	<path class="st0" d="M366.1,490.6c-5.9,12.3-17,18.4-31.3,18.4c-24.5,0-37-20.9-37-48.1c0-26.2,12.9-48.1,38.9-48.1
		c13.5,0,23.9,6.1,29.4,18.2v-16.4h15.9v92.4h-15.9L366.1,490.6z M339.1,494.3c14.3,0,27-9,27-29.6v-7.6c0-20.4-11.7-29.6-25.2-29.6
		c-18,0-27.2,11.9-27.2,33.3C313.8,483,322.6,494.3,339.1,494.3L339.1,494.3z"/>
</g>
<g>
	<path class="st1" d="M407.6,152L268.9,13.3L255.6,0l0,0L151.2,104.4l0,0L103.6,152c-5,5-5,13.3,0,18.2l95.3,95.3l56.7,56.7
		L360,217.9l1.7-1.7l46-46C412.6,165.3,412.6,157,407.6,152z M255.2,208.8l-47.6-47.6l47.6-47.6l47.6,47.6L255.2,208.8z"/>
	
		<linearGradient id="SVGID_1_" gradientUnits="userSpaceOnUse" x1="246.7428" y1="493.1894" x2="180.1477" y2="559.785" gradientTransform="matrix(1 0 0 1 0 -428)">
		<stop  offset="0.18" style="stop-color:#474747"/>
		<stop  offset="1" style="stop-color:#757575"/>
	</linearGradient>
	<path class="st2" d="M255.2,113.5c-31.1-31.1-31.5-81.6-0.4-113.1L150.4,104.8l56.7,56.7L255.2,113.5z"/>
	
		<linearGradient id="SVGID_2_" gradientUnits="userSpaceOnUse" x1="264.0747" y1="684.2054" x2="330.5421" y2="617.7379" gradientTransform="matrix(1 0 0 1 0 -428)">
		<stop  offset="0.18" style="stop-color:#474747"/>
		<stop  offset="1" style="stop-color:#757575"/>
	</linearGradient>
	<path class="st3" d="M302.8,160.7l-47.6,47.6c31.5,31.5,31.5,82,0,113.5l0,0l0,0L360,217L302.8,160.7z"/>
</g>
</svg>
