<?xml version="1.0" encoding="utf-8"?>
<!-- Generator: Adobe Illustrator 21.0.0, SVG Export Plug-In . SVG Version: 6.00 Build 0)  -->
<svg version="1.1" id="Capa_1" xmlns="http://www.w3.org/2000/svg" xmlns:xlink="http://www.w3.org/1999/xlink" x="0px" y="0px"
	 viewBox="0 0 512 512" style="enable-background:new 0 0 512 512;" xml:space="preserve">
<style type="text/css">
	.st0{fill:#C1C1C1;}
</style>
<g transform="matrix(.945094 0 0 .945094 6.301403 4.347014)">
	<path class="st0" d="M112.3,83.3c-31,45.3-27.1,104.3-3.5,152.4l1.7,3.4l1.2,2.2c0.2,0.4,0.5,0.8,0.7,1.2c0.4,0.8,0.8,1.5,1.2,2.2
		l2.3,3.9l1.3,2.2l2.6,4.2l1.2,1.8c1.2,1.9,2.5,3.7,3.8,5.6c0,0,0.1,0.1,0.1,0.1c0.2,0.3,0.4,0.6,0.6,0.9c1.1,1.6,2.3,3.1,3.5,4.7
		l1.3,1.7l3.2,4l1.2,1.5c1.5,1.8,2.9,3.5,4.5,5.2l0.1,0.1c0.1,0.1,0.1,0.1,0.2,0.2c1.5,1.7,3,3.3,4.5,4.9l1.5,1.5l3.6,3.6l1.5,1.4
		c1.6,1.6,3.3,3.1,5,4.6l0.9,0.8l4.5,3.9l1.9,1.5l3.8,2.9l2,1.6l5.7,4.2c0.1,0.1,0.3,0.2,0.4,0.3c1.3,0.9,2.7,1.8,4.1,2.8l1.8,1.2
		l6.4,4l1.8,1l4.8,2.7c0.9,0.5,1.8,0.9,2.7,1.4l3.4,1.8l0.8,0.4l1.4,0.7l5.5,2.6l1.2,0.6c2.1,0.9,4.2,1.8,6.4,2.7l1.5,0.6l6,2.3
		l0.8,0.3c2.2,0.8,4.4,1.5,6.7,2.2l1.6,0.5c2.3,0.7,4.5,1.5,6.9,2C387.9,369.4,431.4,250,431.4,250c-36.5,48.5-101.4,61.2-162.8,47
		c-2.3-0.6-4.6-1.3-6.9-2l-1.7-0.6c-2.2-0.7-4.4-1.4-6.6-2.2l-0.9-0.3c-2-0.7-3.9-1.4-5.8-2.2l-1.6-0.7c-2.1-0.8-4.2-1.7-6.3-2.7
		l-1.3-0.6l-5.3-2.5l-1.5-0.8c-1.4-0.7-2.7-1.4-4.1-2.1l-2.7-1.5c-1.7-0.9-3.3-1.8-4.9-2.8l-1.7-0.9c-2.2-1.3-4.3-2.6-6.4-4
		c-0.6-0.4-1.1-0.8-1.7-1.2l-4.6-3.1l-1.5-1.1l-4.3-3.2l-1.9-1.5l-3.9-3.1l-1.7-1.4l-4.8-4.1c-0.2-0.1-0.4-0.3-0.6-0.5
		c-1.7-1.5-3.4-3.1-5.1-4.7l-1.4-1.4l-3.7-3.6l-1.4-1.5c-1.5-1.6-3-3.2-4.5-4.8c-0.1-0.1-0.2-0.2-0.2-0.2c-1.5-1.7-3.1-3.5-4.5-5.3
		l-1.2-1.4l-3.3-4.1l-1.2-1.5l-3.8-5.1c-34.1-47.4-46.3-112.7-19.1-166.4 M208.4,45.1c-22.4,32.8-21.2,76.7-3.7,111.4
		c2.9,5.8,6.2,11.5,9.9,16.8c3.4,4.9,7.1,10.7,11.5,14.7c1.6,1.8,3.3,3.5,5,5.3c0.4,0.5,0.9,0.9,1.3,1.3c1.7,1.7,3.4,3.3,5.1,4.9
		c0.1,0.1,0.1,0.1,0.2,0.2c2,1.8,4,3.5,6,5.1l1.4,1.1c2,1.6,4.1,3.2,6.3,4.7c0.1,0,0.1,0.1,0.2,0.1c0.9,0.7,1.9,1.3,2.9,1.9
		c0.5,0.3,0.9,0.6,1.3,0.9c1.5,1,3.1,2,4.6,2.9l0.7,0.4l4.1,2.3c0.5,0.3,1,0.5,1.5,0.8l2.9,1.5c0.1,0.1,0.3,0.1,0.4,0.2
		c2,1,4,1.9,6,2.8c0.4,0.2,0.9,0.4,1.3,0.6c1.6,0.7,3.3,1.4,4.9,2l2.1,0.8c1.5,0.6,3,1.1,4.5,1.6l2,0.7c2.2,0.7,4.3,1.5,6.5,1.9
		c115.6,19.5,142.3-71.1,142.3-71.1c-24.1,35.3-70.6,52.1-120.4,39c-2.2-0.6-4.4-1.2-6.5-1.9c-0.7-0.2-1.3-0.4-2-0.6
		c-1.5-0.5-3.1-1-4.6-1.6l-2.1-0.8c-1.7-0.6-3.3-1.3-4.9-2c-0.4-0.2-0.9-0.4-1.3-0.6c-2-0.9-4.1-1.8-6-2.9c-1-0.5-2-1-3-1.6
		l-1.7-0.9c-1.3-0.7-2.6-1.4-3.8-2.2l-0.9-0.6c-1.6-0.9-3.1-1.9-4.6-2.9c-0.5-0.3-0.9-0.6-1.4-0.9l-3-2c-2.1-1.5-4.2-3.1-6.2-4.7
		l-1.4-1.1c-21.8-17.5-39-41.4-47.2-68.5c-8.6-28.1-6.7-59.7,8.2-85.3 M289.2,16.6C276,36.4,274.8,60.9,284,82.8
		c9.7,23.2,29.5,41.4,52.5,50c0.9,0.4,1.9,0.7,2.9,1l1.3,0.4c1.4,0.4,2.7,0.9,4.1,1.2c63.8,12.6,81.1-33.4,85.8-40.1
		c-15.2,22.2-40.7,27.6-71.9,19.9c-2.5-0.6-5.2-1.5-7.6-2.4c-3.1-1.1-6.1-2.4-9-3.8c-5.6-2.7-10.8-6-15.8-9.8
		c-28-21.6-45.4-62.9-27.2-96.5"/>
	<g>
		<path class="st0" d="M148.3,436.6l-4.3,15.3L148.3,436.6L148.3,436.6z M170.5,469.9l-4.8,0L170.5,469.9z M169.3,492.8l-28.6,0.1
			L169.3,492.8z M175.3,469.9l-4.8,0L175.3,469.9z M171.9,490.8l5-19L171.9,490.8z M277,403.4l-9.3,43.6L277,403.4z M253.2,403.4
			l-7,32.5L253.2,403.4z"/>
		<path class="st0" d="M275.4,401.5h-19.8c-1.1,0-2.2,0.9-2.4,2l-14.1,65.1c-0.2,1.1-1.3,2-2.4,2h-14c-13.9,0-12.3-9.6-9.4-22.7
			l0.1-0.4l1.7-9l0.7-3.7l6.4-31.2c0.2-1.1-0.5-2-1.6-2h-20.3c-1.2,0-2.1,0.8-2.4,2l-9.2,43.5c-5,23-3.7,44.9,23.7,45.6l0.8,0h43
			c1.1,0,2.2-0.9,2.4-2l18.5-87.1C277.2,402.3,276.5,401.5,275.4,401.5L275.4,401.5z M354.4,470.7c1.1,0,1.8,0.9,1.6,2l-1.9,9.4
			 M352.2,491.5l1.9-9.4L352.2,491.5z M349.7,493.5l-36.5,0.2L349.7,493.5z"/>
		<path class="st0" d="M301.4,458.6c0-1,1.2-2.8,2.3-2.8l-2.5,0C300,467,301.4,458.6,301.4,458.6z M315,493.6h-0.4H315z
			 M354.4,470.7c1.1,0,1.8,0.9,1.6,2l-2.2,10.9 M324.4,493.7L324.4,493.7L324.4,493.7z M319.5,493.6h-0.3H319.5z M318.1,493.6h-0.5
			H318.1z M316.6,493.6h-0.4H316.6z M319.3,493.6h-1.2H319.3z"/>
		<path class="st0" d="M324.3,493.7l-4.8,0L324.3,493.7z M349.8,493.5l-25.3,0.2L349.8,493.5z M352.1,491.5l1.6-7.9L352.1,491.5
			L352.1,491.5z M317.5,493.6h-0.9h1H317.5z M314.6,493.6h-1.4H314.6z M316.1,493.6H315H316.1z M26.3,458.8l3.1-13.6l-3.5,15.6
			l-0.4,2L26.3,458.8L26.3,458.8z M63.1,401.3H41.4c-1.2,0-2.1,0.8-2.4,2l-4.1,18.2c-0.2,0.8,0.2,1.7,1,1.9c0.2,0.1,0.4,0.1,0.5,0.1
			h21.9c1.1,0,2.2-0.9,2.4-2l4-18.2C64.9,402.1,64.2,401.2,63.1,401.3L63.1,401.3z M58.4,431.5l-6.4,29.5L58.4,431.5z M-4.8,529.4
			l17.9,0.1C7.8,529.5-0.9,529.4-4.8,529.4L-4.8,529.4z"/>
		<path class="st0" d="M32.4,431.5l-3.1,13.6L32.4,431.5z M56.8,429.6H34.9c-1.2,0-2.1,0.8-2.4,2l-6.2,27.3l-0.9,3.9l-5.9,27.9
			c-0.3,1.3-0.6,2.6-1.1,3.9c0,0-4.1,12.2-11,12.1l-6.8-0.1c-1.1,0-2.1,0.8-2.5,1.9l-4.5,19.1c-0.2,0.8,0.2,1.7,1,1.9
			c0.2,0.1,0.3,0.1,0.5,0.1l18,0.1c17.2,0,26.3-9.5,32.1-37l13.2-61C58.7,430.5,58,429.7,56.8,429.6L56.8,429.6z M368.4,492.5
			c-1.1,0-1.8-0.9-1.6-2l16.5-77.3 M391.3,490.6l6.7-33L391.3,490.6z"/>
		<path class="st0" d="M367,491.5c-0.1-0.5-0.1-1.9,0.2-2.9l7.8-36.7l-8.3,38.6c-0.2,1.1,0.5,2,1.6,2h2
			C369.3,492.5,367.2,492.1,367,491.5z M390,492.1c-0.6,0.2-2,0.4-3.1,0.4h2c1.1,0,2.1-0.8,2.4-2l0.4-2
			C391.5,489.7,390.6,491.8,390,492.1L390,492.1z M394.6,474.1l2.9-14.6L394.6,474.1z M459.7,418.5l0.9,3.8c0.3,1.1-0.4,1.9-1.5,2"
			/>
		<path class="st0" d="M391.7,488.6l2.9-14.5L391.7,488.6z M458.8,414.5l0.9,3.8L458.8,414.5z M397.6,459.5l0.8-3.9l3.1-14.7
			l-3.6,16.7L397.6,459.5L397.6,459.5z M383.6,412l-0.7,3.2l-7.8,36.7l8.3-38.6L383.6,412L383.6,412z"/>
		<path class="st0" d="M460.7,422.2l-0.9-3.8l-1.3-5.9c-1.8-6.9-7-10.9-18.4-10.9l-52.3,0c-1.2,0-2.1,0.8-2.4,2l-0.8,3.8l-1.2,5.8
			l-16.1,75.3c-0.2,1.1-0.3,2.3-0.2,2.9c0.1,0.6,2.2,1,3.3,1H387c1.1,0,2.5-0.2,3.1-0.4c0.6-0.2,1.5-2.3,1.8-3.5l6.3-31l6.7-31.4
			c0.2-1.1,1.3-1.9,2.4-2l52,0c1.1,0,1.8-0.9,1.5-2L460.7,422.2z M527.6,388.3l-4,0H507c-1.2,0.1-2.4,0.7-3.1,1.7L467,443.8
			c-0.6,0.9-1.3,0.8-1.6-0.3l-2.7-11.9c-0.3-1.1-1.3-1.9-2.4-2h-23.7c-1.1,0-1.8,0.9-1.5,1.9l10.5,37.1c0.3,1.1,0.3,2.8,0.1,3.9
			l-4.7,18c-0.3,0.8,0.1,1.6,0.9,1.9c0.2,0.1,0.4,0.1,0.6,0.1H466c1.1,0,2.2-0.9,2.5-1.9l4.7-18c0.4-1.3,0.9-2.5,1.7-3.5l59.8-79.3
			c0.7-0.9,0.3-1.6-0.8-1.6L527.6,388.3L527.6,388.3z M339.6,434.8c-0.1,1.2-1.2,2.1-2.3,2.1h-30c-1,0-1.6-0.7-1.4-1.6l0-0.2
			l0.1-0.5c2.9-7.6,8.7-12.6,19.7-12.6C338,422,340.4,428,339.6,434.8L339.6,434.8z M330.8,400.1c-38.5,0-47.6,23.4-52.7,47
			c-5.1,24-4.7,46.5,35.2,46.5h6.3l4.9,0l25.4-0.2c1.1-0.1,2.1-0.9,2.4-2l3.9-18.8c0.2-1.1-0.5-2-1.6-2h-35.8
			c-14.2,0-18.5-3.8-16.9-14.9h57.3c0.9,0,1.8-0.6,2.1-1.5c0.1-0.2,0.1-0.3,0.1-0.5C369.7,421.8,367.2,400.2,330.8,400.1
			L330.8,400.1z M148.8,434.6l-0.5,1.9c0,0-4.3,15.3-4.3,15.3l-4.3,15.3c-0.4,1.1-1.4,1.9-2.5,1.9h-22.9
			c-17.4,0-21.6-13.6-17.4-33.6c4.2-20.5,12.5-33.2,29.6-34.5C149.8,399.3,154.4,415.7,148.8,434.6L148.8,434.6z M164.5,468
			c0,0,10.8-26.2,13.2-41.3c3.3-20.3-6.8-49.6-46-49.6c-39,0-55.9,28-62.3,58.6c-6.4,30.7,2,57.6,40.7,57.4l59.1-0.2
			c1.2-0.1,2.2-0.8,2.5-1.9l5-19c0.3-0.8-0.1-1.6-0.9-1.9c-0.2-0.1-0.4-0.1-0.6-0.1l-9.5-0.1c-0.9,0-1.5-0.6-1.4-1.4
			C164.4,468.3,164.4,468.2,164.5,468L164.5,468z"/>
		<path class="st0" d="M357.4,450.4c0,0.7-0.6,1.3-1.3,1.3s-1.3-0.6-1.3-1.3c0-0.7,0.6-1.3,1.3-1.3S357.4,449.7,357.4,450.4z"/>
	</g>
</g>
</svg>
