<?xml version="1.0" encoding="utf-8"?>
<!-- Generator: Adobe Illustrator 24.1.0, SVG Export Plug-In . SVG Version: 6.00 Build 0)  -->
<svg version="1.1" id="Capa_1" xmlns="http://www.w3.org/2000/svg" xmlns:xlink="http://www.w3.org/1999/xlink" x="0px" y="0px"
	 viewBox="0 0 100 100" style="enable-background:new 0 0 100 100;" xml:space="preserve">
<style type="text/css">
	.st0{fill:#C1C1C1;}
	.st1{fill:none;stroke:#C1C1C1;stroke-linecap:round;stroke-miterlimit:10;}
</style>
<g>
	<g>
		<polygon class="st0" points="13.4,19.1 15.4,19.1 15.4,17.2 12,17.2 7.9,24.7 6,24.7 6,17.2 0,17.2 0,19.1 2.3,19.1 2.3,35.4 
			6,35.4 6,26.7 7.3,26.7 12.2,35.4 16.6,35.4 10.5,24.4 		"/>
		<path class="st0" d="M24,33.5c-3.1,0-3.6-2.5-3.7-5.7c-0.1-3.3,0.6-6.1,3.7-6.1s3.6,2.7,3.6,5.9C27.5,30.9,27.1,33.5,24,33.5
			 M23.9,19.8c-5.5,0-7.6,4.8-7.6,7.9s2.2,7.7,7.6,7.7c5.5,0,7.5-4.3,7.5-7.8C31.4,24.6,29.4,19.8,23.9,19.8"/>
		<path class="st0" d="M42.1,19.8c-2.1,0-3.8,1-4.8,2.5v-2.5H31v1.8h2.5v13.8h3.7v-8.7c0-2.7,1.3-5,3.8-5c1.7,0,2,1.3,2,2.9v10.8
			h3.7v-11C46.8,21.3,45.2,19.8,42.1,19.8"/>
		<path class="st0" d="M83.4,17.2l-3.7,1.3v1.3h-2v1.9h2v9.9c0,3.6,2.6,4.2,5.7,3.5c0.4-0.1,0.8-0.3,0.8-0.3v-1.6
			c-1.1,0.4-2.9,0.6-2.9-1.7v-9.8h3.3v-1.9h-3.3V17.2z"/>
		<path class="st0" d="M55.4,21.7c1.8,0,2.5,1.3,2.6,3.1h-5.3C52.8,23,53.5,21.7,55.4,21.7 M60.5,30.7c-0.8,2.1-2.4,2.9-4.5,2.9
			c-2.2,0-3.3-2.2-3.3-4.9v-1.1v-0.8h9.6v-0.3c-0.3-4-2.9-6.6-6.6-6.6c-3.8,0-7.1,3.6-7.1,7.8c0,4.1,3.4,7.8,7.3,7.8
			c2.9,0,5.2-1.9,6.1-4.7H60.5z"/>
		<path class="st0" d="M75.7,30.7c-0.8,2.1-2.4,2.8-4.5,2.8c-2.2,0-3.9-2.7-3.8-6.3c0.1-4.1,1.8-5.5,4.4-5.5c0.8,0,1.5-0.1,3.1,0.6
			v2.4h1.8v-3.1c-1.1-1.1-2.7-1.8-5.4-1.8c-4.4,0-7.6,3.7-7.6,7.8c0,4.1,3.4,7.8,7.3,7.8c2.9,0,5.2-1.9,6.1-4.7
			C77,30.7,75.7,30.7,75.7,30.7z"/>
		<path class="st0" d="M96.3,27.5c0,4.1-1.4,6.1-3.9,6.1c-1.3,0-1.9-0.6-1.9-2.5c0-4,5.7-4.3,5.7-4.3L96.3,27.5z M99.9,24.7
			c0-2.6-1.1-4.9-5.9-4.9c-1.7,0-3.6,0.3-5,1.8c-0.4,0.5-1,1.7-1,3.1h1.8c0-0.3,0-0.4,0.1-0.6c0.6-2.4,2.9-2.4,3.8-2.4
			c1.3,0.1,2.5,0.8,2.5,2.9v0.8c-2.5,0.1-9.6,1-9.6,5.7c0,2.7,1.3,4.3,4.5,4.3c1.5,0,4-0.7,5-1.8v1.8h3.7L99.9,24.7z"/>
	</g>
	<g>
		<path class="st0" d="M13.2,73.4c0-0.6-0.2-1.3-0.5-1.8l-2.9-5c-0.2-0.4-0.4-0.8-0.5-1.2l-0.1,0.2c-0.7,1.2-0.7,2.8,0,4l2.3,4
			c0.7,1.2,0.7,2.8,0,4l-0.1,0.2c-0.1-0.4-0.3-0.8-0.5-1.2l-2.1-3.7l-1.3-2.4c-0.2-0.4-0.4-0.8-0.5-1.2l-0.1,0.2
			c-0.7,1.2-0.7,2.7,0,4l0,0l2.3,4c0.7,1.2,0.7,2.8,0,4l-0.1,0.2c-0.1-0.4-0.3-0.8-0.5-1.2l-2.9-5c-0.4-0.7-0.5-1.4-0.5-2.2
			C2.1,74.1,0,75.8,0,77.8c0,2.8,4.1,5,9.2,5s9.2-2.2,9.2-5C18.4,75.9,16.3,74.2,13.2,73.4z M21.9,81.9c0-0.7,0.1-1.2,0.3-1.8
			c1,0.5,2.2,0.7,3.1,0.7c1.6,0,2.5-0.5,2.5-1.6c0-1-0.7-1.5-2.3-2.2l-0.9-0.3C23.1,76,22,75.1,22,73.3c0-2,1.4-3.2,4.2-3.2
			c1.1,0,2.2,0.2,3.1,0.5c0,0.7-0.2,1.2-0.3,1.7c-0.9-0.3-2.1-0.5-2.9-0.5c-1.5,0-2.2,0.6-2.2,1.5c0,0.9,0.7,1.4,1.9,1.9l0.9,0.4
			c2.2,0.9,3.1,1.9,3.1,3.6c0,2-1.5,3.4-4.5,3.4C24.1,82.6,22.9,82.4,21.9,81.9z M39.2,73.6v8.6h-1.8l-0.1-1
			c-0.5,0.8-1.2,1.3-2.4,1.3c-2.3,0-3.8-1.7-3.8-4.6c0-3,1.6-4.8,4.8-4.8C37.2,73.2,38.2,73.3,39.2,73.6z M37.3,80.3v-5.4
			c-0.4-0.1-0.8-0.1-1.4-0.1c-2,0-2.9,1.2-2.9,3.1c0,1.8,0.7,3,2.4,3C36.2,80.9,36.8,80.7,37.3,80.3z M48.9,76.5v5.8H47v-5.5
			c0-1.4-0.5-2-2.4-2c-0.5,0-1,0-1.5,0.1v7.3h-1.9v-8.6c1.2-0.3,2.6-0.5,3.4-0.5C47.9,73.2,48.9,74.4,48.9,76.5z M54.2,80.9
			c0.5,0,1.1-0.1,1.5-0.3c0,0.5-0.1,1.1-0.2,1.6c-0.5,0.2-1.1,0.3-1.6,0.3c-1.8,0-3-0.8-3-2.9v-9.1c0.6-0.2,1.3-0.3,1.9-0.3v3.3h3
			c0,0.6-0.1,1.1-0.2,1.6h-2.9v4.2C52.7,80.4,53.3,80.9,54.2,80.9z M64.4,73.6v8.6h-1.8l-0.1-1c-0.5,0.8-1.2,1.3-2.4,1.3
			c-2.3,0-3.8-1.7-3.8-4.6c0-3,1.6-4.8,4.8-4.8C62.4,73.2,63.4,73.3,64.4,73.6z M62.5,80.3v-5.4c-0.4-0.1-0.8-0.1-1.4-0.1
			c-2,0-2.9,1.2-2.9,3.1c0,1.8,0.7,3,2.4,3C61.4,80.9,62,80.7,62.5,80.3z M74.1,76.5v5.8h-1.9v-5.5c0-1.4-0.5-2-2.4-2
			c-0.5,0-1,0-1.5,0.1v7.3h-1.9v-8.6c1.2-0.3,2.6-0.5,3.4-0.5C73.1,73.2,74.1,74.4,74.1,76.5z M83.8,70.2v12.1H82l-0.1-1.1
			c-0.5,0.8-1.2,1.3-2.5,1.3c-2.3,0-3.8-1.7-3.8-4.6c0-3,1.6-4.8,4.8-4.8c0.5,0,1,0,1.4,0.1v-2.9C82.5,70.2,83.1,70.2,83.8,70.2z
			 M81.9,80.3V75c-0.5-0.1-1-0.2-1.5-0.2c-1.9,0-2.8,1.2-2.8,3.1c0,1.8,0.7,3,2.4,3C80.7,80.9,81.4,80.7,81.9,80.3z M93.3,78.6h-6.1
			c0.3,1.6,1.1,2.3,2.9,2.3c1,0,2.1-0.2,3-0.7c-0.1,0.5-0.2,1.2-0.3,1.7c-0.9,0.4-1.8,0.5-2.8,0.5c-3.2,0-4.7-1.8-4.7-4.7
			c0-2.6,1.2-4.6,4.2-4.6c2.7,0,3.9,1.8,3.9,3.9C93.4,77.7,93.4,78.1,93.3,78.6z M87.2,77h4.3c0-1.4-0.8-2.3-2.1-2.3
			C88.1,74.8,87.4,75.5,87.2,77z M100,73.2c0,0.6-0.1,1.3-0.2,1.6c-0.5,0-0.9-0.1-1.4-0.1c-0.5,0-0.9,0-1.4,0.1v7.4h-1.9v-8.6
			c0.8-0.3,2.2-0.5,3.2-0.5C98.9,73.2,99.6,73.2,100,73.2z"/>
	</g>
	<line class="st1" x1="18.4" y1="52.4" x2="85.3" y2="52.4"/>
</g>
</svg>
