<?xml version="1.0" encoding="utf-8"?>
<!-- Generator: Adobe Illustrator 24.1.0, SVG Export Plug-In . SVG Version: 6.00 Build 0)  -->
<svg version="1.1" id="Capa_1" xmlns="http://www.w3.org/2000/svg" xmlns:xlink="http://www.w3.org/1999/xlink" x="0px" y="0px"
	 viewBox="0 0 100 100" style="enable-background:new 0 0 100 100;" xml:space="preserve">
<style type="text/css">
	.st0{fill:#C1C1C1;}
</style>
<g>
	<path class="st0" d="M5.5,37.1l-4.9,17c0,0-0.9,2.6-0.5,4.3c0.2,1,0.7,1.9,1.5,2.6L7,42.9c0,0,1-2.8-0.1-4.5
		C6.5,37.9,6,37.4,5.5,37.1 M22.2,53.2c0,0,0.5-1.8,1.6-2.6c1.2-0.8,1.5-0.6,1.8-0.5c0.2,0.1,0.5,0.9-0.4,1.8s-2.1,1.1-2.4,1.2
		C22.6,53.1,22.4,53.2,22.2,53.2 M7.5,54.6c-0.3,3,1.4,4.7,3,5.1c1.6,0.4,2.7,0.2,4.6-1c1.8-1.2,2.5-3.6,2.5-3.6l1.4,0.3
		c0,0,0.2,4.4,3.2,6.1c3,1.6,4.3,0.2,4.3,0.2s-1.1-0.2-2.7-1.4c-0.5-0.4-1.4-1.5-1.6-2.1c-0.3-0.8-0.4-1.7-0.3-2.5
		c0,0,3.7-0.1,5.2-2.5c1.5-2.4,0.2-3.8-0.1-4.2c-0.3-0.3-2.1-1.5-4.7,0s-3.1,4.5-3.1,4.5l-1.1-0.3c0,0-0.1-0.6-0.4-1.9
		c-0.3-1.7-3.3-3.8-4.3-1.7c-1.1,2.3,1.6,4.1,1.6,4.1c0,0.6-1.2,2.9-1.3,3.1c-0.2,0.2-1.2,1.7-2.6,1.2c-1.4-0.5-0.7-2.8-0.7-2.8
		l3.6-10.9c0,0,1.1-2.8,0-4.6c-0.3-0.5-0.8-1-1.4-1.3L8,52.4C7.8,53.1,7.6,53.9,7.5,54.6 M30.8,49l-1.5,4.6c0,0-1.3,4-1.3,4.9
		c0,1.3,2,2.2,2,2.2c0.4-1.5,1-3,1.8-4.4c0.8-1.3,1.8-2.5,3.1-3.4c0,0-0.4,1.6,1,1.9c0.9,0.2,2.2-2.2,2.4-2.8
		c0.2-0.6,0.3-1.2-0.3-1.4c-1.1-0.3-2.3-0.2-3.4,0.3c-0.9,0.4-1.8,0.9-2.6,1.5l0.6-1.4c0,0,0.3-0.7-0.1-1.2S30.8,49,30.8,49
		 M41.1,49c0,0-1.7,4.2-2.6,7c-0.3,0.8-0.7,1.9,0.2,2.6c1,0.7,1.1,0.7,1.1,0.7s2-4.2,3.8-5.7c1.2-1,1.6-1.1,1.7-1.1
		c-0.6,1.3-1.1,2.6-1.6,4c-0.4,1.5-0.6,1.8,0.2,2.5c0.4,0.3,1.3,0.5,1.3,0.5s1.8-3.9,3.4-5.3c1.5-1.4,2.4-1.8,2.6-1.8
		c-0.8,1.5-1.4,3.1-1.6,4.8c-0.1,1.1-0.1,1.5,0.3,2.4c0.3,0.8,0.9,1.5,1.6,2c0.4,0.2,0.9,0.4,1.4,0.4c0,0-1.5-1.2-1.1-3.5
		c0.2-1.5,0.7-3,1.4-4.4c0.4-0.9,1-1.8,0.4-3c-0.9-1.6-3.2-0.6-4.9,0.2c-0.4,0.2-0.7,0.4-1,0.6c0,0-0.5-1.4-1.4-1.6
		c-0.8-0.2-1.2,0-2.3,0.5c-1.1,0.5-1.5,0.8-1.5,0.8s0.5-1.2,0.3-1.8c-0.1-0.3-0.3-0.6-0.6-0.7C41.8,49.1,41.5,49,41.1,49 M74.5,49.8
		c-0.2-0.6,0.3-1.2,1-1.4s1.4,0.1,1.5,0.7c0.2,0.6-0.3,1.2-1,1.4C75.4,50.7,74.7,50.4,74.5,49.8"/>
	<path class="st0" d="M74.3,50.6c0,0,1.2,0.4,1.5,1.1c0.3,0.6,0.4,0.8-0.3,2.2c-0.6,1.2-1.1,2.4-1.5,3.8c-0.4,1.4-0.3,3.3-0.1,3.9
		c0.1,0.4,0.2,0.8,0.4,1.2c0.1,0.2,0.1,0.2,0.1,0.2c-0.5-0.2-1-0.4-1.5-0.8c-0.6-0.6-1.2-1.3-1.4-2c-0.1-0.4-0.2-0.9-0.3-1.3
		c0-0.2,0-0.7,0-0.7s-1.1,0.8-1.8,1c-0.7,0.2-1.4,0.2-2.1-0.1c-0.8-0.2-1.7-1.1-1.5-2.9c0.3-1.8,0.8-3.1,1.2-4.4l1.2-3.9L67,48.1
		c-0.5,0-1.1,0-1.5-0.3c-0.4-0.3-0.7-0.7-0.7-1.1c0-0.1,0-0.3,0-0.4l4.4-0.4c0,0,0.4-1.4,0.8-2.5c0.4-1,0.9-1.9,0.9-1.9
		s0.5,0,0.9,0.7c0.4,0.7,0.4,1.6,0.4,2c-0.1,0.4-0.1,0.9-0.2,1.3l4.5-0.4c0.7-0.1,1.4-0.1,2.1-0.1c0.7,0.1,1.5,0.2,2.2,0.4
		c0.7,0.2,1.7,0.5,1.7,0.5c-0.2,0.2-0.8,0.3-1.5,0.4c-0.2,0-0.5,0.1-0.9,0.2c-0.4,0.1-1.7,0.2-2.3,0.3c-0.9,0.1-4.9,0.5-4.9,0.5
		l-1.7,0.2l-1.3,3.9l-1.5,4.6c0,0-0.4,1.4,0.3,1.6c0.6,0.2,1.1,0.1,1.8-0.5c0.6-0.6,1.2-1.2,1.5-2c0.4-0.7,1.5-3,1.5-3L74.3,50.6z"
		/>
	<path class="st0" d="M87.3,51.1c0.1-0.4,0-0.8-0.4-0.9c-0.6-0.4-1.7-0.5-2.4-0.5c-0.6,0-1.3,0.1-1.9,0.2c-0.6,0.1-1.2,0.3-1.8,0.5
		c-0.6,0.2-1.1,0.5-1.6,0.9c-0.8,0.6-1.5,1.3-2,2.1c-0.4,0.6-0.6,1.3-0.7,2.1c-0.1,0.7,0,1.6,0.3,2.1c0.3,0.6,0.8,1.1,1.4,1.4
		c0.5,0.3,1,0.5,1.5,0.5c0.7,0.1,1.4,0.1,2.1,0c0.8-0.1,1.5-0.4,2.2-0.7c0.5-0.2,0.9-0.6,1.3-1c0.3-0.4,0.3-0.5,0.3-0.7
		c0-0.1,0-0.2-0.1-0.2c0,0-0.5,0.3-0.7,0.4c-0.2,0.1-1.2,0.6-2,0.7c-0.5,0.1-0.9,0.1-1.4,0.1c-0.5-0.1-1.5-0.3-1.9-0.9
		c-0.4-0.6-0.4-1.2-0.1-2c0.4-1,1.4-2.1,2.1-2.7c0.6-0.4,1-0.7,2.3-1.1c0.7-0.2,1.5-0.4,2.2-0.4C86.3,51.1,87.3,51.1,87.3,51.1
		 M100,61.5c0,0-2.4-0.5-3.2-2.1s-0.8-2.7-0.5-4.1c0.3-1.4,0.8-3,0.4-3.7c-0.3-0.7-1-1.6-2.2-1.7c-1.4-0.1-2.8,0.4-4,1.2
		c-1.3,0.9-2.2,1.7-3.2,3.9c-1.1,2.6,0.6,4.2,2,4.3c1.2,0.1,1.6-0.1,2.8-0.7c0.8-0.5,1.6-1.2,2.2-2c0,0-0.3,2.2,1.4,3.7
		c1.7,1.5,2.1,1.2,3.3,1.5C100.2,61.9,100,61.5,100,61.5 M92.8,54.7c-1,1.1-1.2,1.2-2.5,2.4c-0.6,0.5-1.8,0.9-1.4-0.4
		c0.4-1.2,1.2-2.3,2.2-3.2c0,0,0.1-0.2,1.1-0.8c1-0.5,1.6-0.6,1.8-0.4C94.2,52.6,93.8,53.6,92.8,54.7 M64.1,59.4
		c-0.8-1.6-0.8-2.7-0.5-4.1c0.3-1.4,0.8-3,0.4-3.7c-0.3-0.7-1-1.6-2.2-1.7c-1.4-0.1-2.8,0.4-4,1.2c-1.3,0.9-2.2,1.7-3.2,3.9
		c-1.1,2.6,0.7,4.2,2,4.3c1.2,0.1,1.6-0.1,2.8-0.7c0.8-0.5,1.6-1.2,2.2-2c0,0-0.3,2.2,1.4,3.7c1.6,1.4,2.8,1.5,3.3,1.5
		c1.1,0.1,1.1-0.2,1.1-0.2S64.8,61,64.1,59.4 M60.1,54.7c-1,1.1-1.2,1.2-2.5,2.4c-0.6,0.5-1.8,0.9-1.4-0.4c0.4-1.2,1.2-2.3,2.2-3.2
		c0,0,0.1-0.2,1.1-0.8c1-0.5,1.6-0.6,1.8-0.4C61.5,52.7,61.1,53.6,60.1,54.7 M60.5,48.6l2.5-2.4c0,0,0.7-0.7,0.4-1.3
		c-0.3-0.6-0.5-1-0.9-0.6c-0.7,0.6-1.4,1.4-2,2.1c-0.4,0.7-0.7,1.2-0.5,1.6C60.1,48.2,60.3,48.4,60.5,48.6"/>
</g>
</svg>
