<?xml version="1.0" encoding="utf-8"?>
<!-- Generator: Adobe Illustrator 24.1.0, SVG Export Plug-In . SVG Version: 6.00 Build 0)  -->
<svg version="1.1" id="Capa_1" xmlns="http://www.w3.org/2000/svg" xmlns:xlink="http://www.w3.org/1999/xlink" x="0px" y="0px"
	 viewBox="0 0 100 100" style="enable-background:new 0 0 100 100;" xml:space="preserve">
<style type="text/css">
	.st0{fill:#C1C1C1;}
</style>
<g>
	<g>
		<path class="st0" d="M13.95,74.65v1.73h-5.2v3.02h4.98v1.73H8.75v3.26h5.32v1.73H6.53V74.65H13.95z"/>
		<path class="st0" d="M20.95,74.65c1.19,0,2.26,0.24,3.19,0.73c0.93,0.49,1.65,1.17,2.17,2.05c0.52,0.88,0.77,1.87,0.77,2.98
			c0,1.12-0.26,2.12-0.78,2.99c-0.52,0.87-1.25,1.54-2.21,2.02c-0.95,0.48-2.05,0.72-3.28,0.72h-4.68V74.65H20.95z M20.72,84.39
			c1.23,0,2.21-0.37,2.96-1.11c0.74-0.74,1.11-1.7,1.11-2.9c0-1.24-0.37-2.22-1.12-2.93s-1.75-1.08-3.02-1.08h-2.29v8.01H20.72z"/>
		<path class="st0" d="M31.42,74.65v11.48H29.2V74.65H31.42z"/>
		<path class="st0" d="M40.03,74.5c0.65,0,1.29,0.07,1.92,0.22s1.3,0.4,2.02,0.76v2.09c-0.71-0.4-1.36-0.7-1.96-0.88
			c-0.6-0.18-1.23-0.27-1.88-0.27c-0.82,0-1.55,0.17-2.21,0.51s-1.17,0.81-1.53,1.43s-0.55,1.3-0.55,2.05
			c0,0.77,0.18,1.45,0.54,2.06c0.36,0.61,0.87,1.08,1.53,1.41c0.66,0.33,1.4,0.5,2.22,0.5c0.63,0,1.23-0.09,1.8-0.27
			c0.57-0.18,1.29-0.51,2.17-0.98v2.09c-0.75,0.39-1.43,0.67-2.05,0.83c-0.62,0.16-1.35,0.25-2.19,0.25c-1.21,0-2.29-0.24-3.25-0.72
			c-0.95-0.48-1.7-1.18-2.25-2.08c-0.54-0.91-0.82-1.9-0.82-2.98c0-1.16,0.28-2.19,0.84-3.12c0.56-0.92,1.33-1.63,2.32-2.13
			C37.69,74.75,38.79,74.5,40.03,74.5z"/>
		<path class="st0" d="M48.48,74.65v11.48h-2.22V74.65H48.48z"/>
		<path class="st0" d="M56.94,74.5c1.19,0,2.26,0.24,3.21,0.74s1.71,1.2,2.27,2.12s0.85,1.94,0.85,3.04c0,1.07-0.28,2.07-0.83,2.99
			s-1.31,1.63-2.27,2.14c-0.96,0.51-2.04,0.76-3.25,0.76c-1.19,0-2.27-0.26-3.24-0.77s-1.73-1.22-2.27-2.12s-0.81-1.9-0.81-2.99
			c0-1.05,0.27-2.04,0.81-2.97c0.54-0.93,1.29-1.65,2.24-2.16C54.61,74.75,55.7,74.5,56.94,74.5z M52.89,80.39
			c0,0.76,0.17,1.45,0.52,2.05c0.35,0.61,0.83,1.08,1.44,1.41c0.62,0.33,1.31,0.5,2.09,0.5c1.18,0,2.15-0.37,2.91-1.11
			s1.14-1.69,1.14-2.86c0-0.76-0.17-1.45-0.51-2.06s-0.82-1.08-1.45-1.42c-0.62-0.33-1.32-0.5-2.1-0.5s-1.48,0.17-2.1,0.51
			s-1.1,0.81-1.43,1.41C53.06,78.94,52.89,79.62,52.89,80.39z"/>
		<path class="st0" d="M67.3,74.65l6.82,8.01v-8.01h2.17v11.48h-1.91l-6.86-8.15v8.15h-2.17V74.65H67.3z"/>
		<path class="st0" d="M86.24,74.65v1.73h-5.2v3.02h4.98v1.73h-4.98v3.26h5.32v1.73h-7.54V74.65H86.24z"/>
		<path class="st0" d="M91.75,74.5c1.12,0,2.19,0.28,3.23,0.84v1.97c-1.19-0.72-2.24-1.08-3.16-1.08c-0.56,0-1,0.11-1.31,0.32
			c-0.31,0.22-0.47,0.51-0.47,0.87c0,0.43,0.29,0.83,0.88,1.2c0.16,0.11,0.8,0.42,1.9,0.92c0.94,0.44,1.62,0.94,2.04,1.48
			c0.42,0.54,0.62,1.19,0.62,1.96c0,0.99-0.36,1.78-1.06,2.39c-0.71,0.61-1.63,0.91-2.76,0.91c-0.73,0-1.37-0.08-1.89-0.24
			s-1.12-0.44-1.78-0.83v-2.19c1.23,1.02,2.38,1.53,3.47,1.53c0.54,0,0.98-0.12,1.32-0.35c0.33-0.24,0.5-0.55,0.5-0.94
			c0-0.53-0.29-0.96-0.87-1.3c-0.48-0.26-1.1-0.58-1.87-0.95c-0.9-0.41-1.58-0.89-2.03-1.44c-0.45-0.55-0.67-1.18-0.67-1.91
			c0-0.96,0.36-1.73,1.08-2.31C89.63,74.78,90.58,74.5,91.75,74.5z"/>
	</g>
	<path class="st0" d="M52.98,58.37c-0.31,0.19-0.65,0.31-0.87,0.54c-6.65,6.96-15.03,9.34-24.35,9.33c-9.21-0.01-18.43,0-27.77-0.12
		c5.27-0.63,7.15-4.22,7.86-8.8c1.93-12.46,3.91-24.92,5.73-37.39c0.64-4.35-0.74-6.08-4.83-7.15c6.98,0,13.97-0.02,20.95,0.01
		c3.41,0.01,6.84-0.12,10.22,0.22c7,0.7,13.32,2.98,17.85,9.24c0.89-0.7,1.67-1.29,2.43-1.9c8.96-7.14,19.09-9.94,30.42-8.04
		c1.65,0.28,3.3,0.9,4.8,1.67c4.03,2.08,5.49,5.76,3.99,9.56c-1.54,3.9-6.08,6.49-9.96,5.15c-1.53-0.53-2.9-2.18-3.81-3.65
		c-1.06-1.73,0.36-2.85,1.69-3.96c1.87-1.56,2.94-3.68,2.09-6.15c-0.87-2.53-3.18-2.87-5.48-2.88c-5.6-0.04-9.5,2.91-12.36,7.4
		c-4.28,6.72-5.94,14.31-6.63,22.08c-0.42,4.72-0.49,9.56,0.01,14.26c0.73,6.88,5.06,10.31,11.35,9.77
		c6.37-0.54,9.43-6.59,6.16-12.01c-0.4-0.66-0.45-1.82-0.16-2.55c1.51-3.85,5.57-5.86,9.6-4.93c3.52,0.82,5.26,4.81,3.82,8.93
		c-1.51,4.31-4.71,7-8.77,8.8c-8.85,3.92-25.15,3.37-33.16-6.75C53.61,58.79,53.3,58.62,52.98,58.37z M45.66,28.2
		c-0.12-1.15-0.2-2.42-0.39-3.68c-0.92-6.09-4.02-8.96-10.19-9.44c-0.93-0.07-1.88,0.04-2.81-0.08c-1.87-0.24-2.49,0.64-2.76,2.4
		c-1.44,9.51-2.99,19-4.48,28.49c-0.83,5.3-1.65,10.6-2.46,15.89c-0.81,5.22,1.11,7.02,6.25,6.02c3.63-0.71,6.54-2.48,8.49-5.59
		c1.25-2.01,2.4-4.14,3.23-6.34C43.88,47,44.88,37.69,45.66,28.2z"/>
</g>
</svg>
