<?xml version="1.0" encoding="utf-8"?>
<!-- Generator: Adobe Illustrator 24.1.0, SVG Export Plug-In . SVG Version: 6.00 Build 0)  -->
<svg version="1.1" id="Capa_1" xmlns="http://www.w3.org/2000/svg" xmlns:xlink="http://www.w3.org/1999/xlink" x="0px" y="0px"
	 viewBox="0 0 100 100" style="enable-background:new 0 0 100 100;" xml:space="preserve">
<style type="text/css">
	.st0{fill:#C1C1C1;}
</style>
<g id="FAjz20.tif">
	<g>
		<path class="st0" d="M95.4,60.5c0,0.1,0,0.1-0.1,0.2c-0.6,0-1.2,0-1.8,0c1.2-5.8,2.5-11.6,3.7-17.4c0-0.1-0.1-0.1-0.2-0.1
			c-3.8,5.8-7.7,11.7-11.5,17.5c-0.6,0-1.2,0-1.8,0C82.3,54.8,81,48.9,79.6,43c0-0.1-0.1-0.1-0.1,0c-1.3,5.9-2.5,11.8-3.8,17.7
			c-0.6,0-1.2,0-1.9,0c1.5-7.2,3-14.4,4.6-21.5c0.8,0,1.5,0,2.3,0c1.4,6.4,2.8,12.9,4.3,19.4c4.2-6.6,8.4-13,12.6-19.4
			c0.8,0,1.7,0,2.5,0C99.9,39.5,96.7,54.3,95.4,60.5z"/>
		<path class="st0" d="M20.3,61c-2.9-0.6-4.4-2.5-4.5-5.4c-0.1-2,0.3-3.9,0.7-5.9c0.7-3.3,2.2-10.3,2.3-10.5c0.6,0,1.2,0,1.8,0
			c-0.2,1-0.4,1.9-0.6,2.8c-0.7,3.4-1.4,6.8-2.1,10.2c-0.3,1.3-0.3,2.5-0.1,3.8c0.3,1.7,1.4,2.8,3.1,3.2c1.6,0.3,3.1,0.3,4.7-0.1
			c1.7-0.5,3.1-1.5,4.1-3c1.1-1.6,1.6-3.4,2-5.3c0.8-3.8,2.5-11.5,2.5-11.6c0.6,0,1.1,0,1.8,0c-0.2,1-0.4,1.9-0.6,2.8
			c-0.7,3.5-1.5,7-2.3,10.4c-0.4,1.8-1.1,3.5-2.2,5c-1.5,2.1-3.5,3.2-6,3.6c-0.1,0-1.2,0.2-2.3,0.1C21.5,61.2,20.4,61,20.3,61z"/>
		<path class="st0" d="M43.8,61.1c-0.4,0-0.8-0.1-1.1-0.2c-3.8-0.7-6.2-3.2-6.6-7c-0.5-4.4,1.6-10.7,7-13.5c1.3-0.7,2.7-1.2,4.2-1.4
			c0.1,0,0.3-0.1,0.5-0.1c0.6-0.1,1.5-0.1,2.3-0.1c1,0.1,1.9,0.2,2.1,0.3c1.2,0.3,2.3,0.7,3.3,1.6c-0.5,0.4-0.9,0.8-1.3,1.1
			c-3.2-2.5-9.8-1.8-13.2,2.5c-2.1,2.6-3.1,5.6-3,9c0.1,3.5,2.4,5.8,5.8,6.2c2.4,0.3,4.7-0.2,6.8-1.5c0.3,0.5,0.6,0.9,1,1.4
			c-1.3,0.8-2.7,1.3-4.1,1.5c-0.2,0-1.1,0.2-1.9,0.3C44.8,61.3,44.2,61.1,43.8,61.1z"/>
		<path class="st0" d="M4.6,39.2c0.6,0,1.2,0,1.9,0C5,45.9,3.6,52.6,2.2,59.3c3.8,0,7.4,0,11.2,0c-0.1,0.5-0.2,1-0.3,1.5
			c-4.4,0-8.7,0-13.1,0C0,60.6,3.3,45.4,4.6,39.2z"/>
		<path class="st0" d="M66.1,41.4c-4,6.4-8,12.9-12,19.3c-0.7,0-1.3,0-2,0c4.5-7.2,9.1-14.4,13.6-21.6c0.7,0,1.3,0,2,0
			c1.5,7.2,2.9,14.4,4.4,21.6c-0.7,0-1.3,0-2,0c-1.3-6.4-2.5-12.8-3.8-19.3C66.2,41.4,66.2,41.4,66.1,41.4z"/>
		<path class="st0" d="M63.8,50.7c0.4-0.3,0.8-0.3,0.9,0c0.7,3.4,1.3,6.7,2,10.1c-3,0-6,0-9.1,0C59.6,57.4,61.7,54,63.8,50.7z"/>
	</g>
</g>
</svg>
