<?xml version="1.0" encoding="utf-8"?>
<!-- Generator: Adobe Illustrator 24.1.0, SVG Export Plug-In . SVG Version: 6.00 Build 0)  -->
<svg version="1.1" id="Capa_1" xmlns="http://www.w3.org/2000/svg" xmlns:xlink="http://www.w3.org/1999/xlink" x="0px" y="0px"
	 viewBox="0 0 100 100" style="enable-background:new 0 0 100 100;" xml:space="preserve">
<style type="text/css">
	.st0{fill:#C1C1C1;}
</style>
<g>
	<path class="st0" d="M79.37,42.8l8.5-7.24h-8.5V42.8z M91.85,64.93H100V35.56h-8.15V64.93z M79.37,64.93h8.14V43.58h-8.14V64.93z
		 M15,58.31c-4.51,0-5.95-4.11-5.95-8.06c0-3.95,1.44-8.06,5.95-8.06c3.98,0,4.94,3.25,5.11,4.31h8.99
		c-0.81-7.36-6.27-11.64-13.84-11.64C6.24,34.86,0,41.31,0,50.25c0,8.68,5.71,15.38,15.26,15.38c8.41,0,13.97-6.29,13.97-12.21
		h-9.07C19.58,56.17,18.24,58.31,15,58.31 M45.3,43.05c-2.94,0-4.96,0.95-6.48,2.31v-9.8h-8.15v29.37h8.15V53.78
		c0-3.3,1.73-4.23,3.09-4.23c2.39,0,2.84,1.73,2.84,4.19v11.19h8.15V50.29C52.89,45.39,49.31,43.05,45.3,43.05 M62.07,51.43
		c0.38-2.44,1.81-3.8,4.28-3.8c2.14,0,3.65,1.71,3.65,3.8H62.07z M65.88,42.3c-7.04,0-11.66,5.25-11.66,11.69
		c0,7.08,4.97,11.56,12.21,11.56c4.56,0,9.33-2.66,10.74-7.4h-7.18c-0.53,1.21-2.07,2.07-3.72,2.07c-2.49,0-4.01-1.81-4.24-4.47
		h15.59c0.13-0.57,0.18-1.17,0.18-1.76C77.8,47.99,74.04,42.3,65.88,42.3"/>
</g>
</svg>
