<?xml version="1.0" encoding="utf-8"?>
<!-- Generator: Adobe Illustrator 24.1.0, SVG Export Plug-In . SVG Version: 6.00 Build 0)  -->
<svg version="1.1" id="Capa_1" xmlns="http://www.w3.org/2000/svg" xmlns:xlink="http://www.w3.org/1999/xlink" x="0px" y="0px"
	 viewBox="0 0 100 100" style="enable-background:new 0 0 100 100;" xml:space="preserve">
<style type="text/css">
	.st0{fill:#C1C1C1;}
</style>
<g>
	<path class="st0" d="M14.45,63.94c0-3.71-3.01-6.71-6.73-6.71c-3.72,0-6.73,3-6.73,6.71s3.01,6.71,6.73,6.71
		C11.44,70.65,14.45,67.64,14.45,63.94"/>
	<path class="st0" d="M34.38,16.51c0-3.71-3.01-6.71-6.73-6.71s-6.73,3-6.73,6.71c0,3.71,3.01,6.71,6.73,6.71
		S34.38,20.22,34.38,16.51"/>
	<path class="st0" d="M57.96,6.71C57.96,3,54.95,0,51.23,0c-3.72,0-6.73,3-6.73,6.71c0,3.71,3.01,6.71,6.73,6.71
		C54.95,13.42,57.96,10.41,57.96,6.71"/>
	<path class="st0" d="M81.54,16.51c0-3.71-3.01-6.71-6.73-6.71c-3.71,0-6.73,3-6.73,6.71c0,3.71,3.01,6.71,6.73,6.71
		C78.53,23.22,81.54,20.22,81.54,16.51"/>
	<path class="st0" d="M98.38,37.2c0-3.71-3.01-6.71-6.73-6.71c-3.71,0-6.73,3-6.73,6.71s3.01,6.71,6.73,6.71
		C95.36,43.91,98.38,40.91,98.38,37.2"/>
	<path class="st0" d="M91.43,84.9c-1.12,0.99-2.42,1.49-3.88,1.49c-1.66,0-3.06-0.58-4.26-1.77c-2.07-2.05-2.5-4.96-2.5-7.04
		c0-2.19,0.42-5.22,2.41-7.18c1.09-1.08,2.55-1.63,4.35-1.63c1.47,0,2.77,0.5,3.88,1.49c1.75,1.52,2.63,3.99,2.63,7.32
		C94.06,80.91,93.18,83.38,91.43,84.9 M96.12,69.95c-1.44-2.57-4.27-5.21-9.05-5.21c-2.82,0-5.53,1-7.31,2.82
		c-2.33,2.35-3.61,5.89-3.61,9.97c0,4.28,1.33,7.9,3.76,10.21c1.31,1.22,3.59,2.67,7,2.67c2.72,0,5.41-1.14,6.95-2.9V100h4.55V69.95
		H96.12z M66.18,84.76c-1.09,1.08-2.55,1.63-4.35,1.63c-1.47,0-2.77-0.5-3.89-1.49c-1.74-1.52-2.63-3.99-2.63-7.32
		c0-3.33,0.89-5.79,2.63-7.32c1.11-0.99,2.42-1.49,3.89-1.49c1.66,0,3.06,0.58,4.26,1.77c2.07,2.04,2.5,4.96,2.5,7.04
		C68.59,79.77,68.17,82.8,66.18,84.76 M62.46,64.75c-2.72,0-5.41,1.14-6.95,2.9v-12.5h-4.55v30.05h2.46
		c1.44,2.56,4.1,5.21,8.89,5.21c2.82,0,5.52-1,7.31-2.82c2.33-2.35,3.61-5.89,3.61-9.97c0-4.28-1.33-7.91-3.76-10.21
		C68.15,66.21,65.87,64.75,62.46,64.75"/>
</g>
</svg>
