<?xml version="1.0" encoding="utf-8"?>
<!-- Generator: Adobe Illustrator 24.1.0, SVG Export Plug-In . SVG Version: 6.00 Build 0)  -->
<svg version="1.1" id="Capa_1" xmlns="http://www.w3.org/2000/svg" xmlns:xlink="http://www.w3.org/1999/xlink" x="0px" y="0px"
	 viewBox="0 0 100 100" style="enable-background:new 0 0 100 100;" xml:space="preserve">
<style type="text/css">
	.st0{fill:#C1C1C1;}
</style>
<g>
	<g id="S9V0CP_1_">
		<g>
			<path class="st0" d="M59.1,78.9c-0.6,0-1.1,0-1.7,0c0-3.6,0-7.2,0-10.8c0.5,0,1,0,1.6,0c0.1,0.2,0.1,0.5,0.2,0.8
				c0.2-0.1,0.4-0.1,0.5-0.2c1-0.8,2.1-1,3.4-0.8c1,0.2,1.7,0.8,2.3,1.7c0.8-1.2,1.9-1.8,3.3-1.8c2.1-0.1,3.6,1.1,3.8,3.2
				c0.1,0.7,0.1,1.4,0.1,2.1c0,1.8,0,3.7,0,5.5c0,0.1,0,0.1-0.1,0.2c-0.5,0-1,0-1.6,0c0-0.3,0-0.6,0-0.8c0-1.8,0-3.6,0-5.3
				c0-0.5,0-1-0.2-1.5c-0.3-1.2-0.9-1.7-2-1.8c-1.1-0.1-2.1,0.4-2.5,1.4c-0.2,0.6-0.3,1.2-0.4,1.8c0,1.8,0,3.6,0,5.3
				c0,0.3,0,0.6,0,1c-0.6,0-1.1,0-1.7,0c0-0.4,0-0.7,0-1.1c0-1.9,0-3.9,0-5.8c0-1.6-0.8-2.6-2.2-2.7c-1.3-0.1-2.4,0.8-2.7,2.3
				c-0.1,0.3-0.1,0.7-0.1,1.1c0,1.7,0,3.5,0,5.2C59.1,78.2,59.1,78.5,59.1,78.9z"/>
			<path class="st0" d="M98.1,77.7c-0.2,0.1-0.4,0.2-0.5,0.4c-2.7,2.1-6.5,1.1-7.8-2.1c-0.7-1.8-0.7-3.7,0.2-5.5
				c1.4-2.9,5.1-3.7,7.7-1.6c0.2,0.1,0.4,0.3,0.6,0.4c0-0.5,0.1-0.8,0.1-1.3c0.3,0,0.5,0,0.8,0c0.3,0,0.5,0,0.8,0c0,0.2,0,0.4,0,0.6
				c0,2.9,0,5.8,0,8.6c0,0.7-0.1,1.4-0.2,2c-0.4,2-1.7,3-3.6,3.4c-1.8,0.4-3.7,0-5.4-0.9c0.1-0.2,0.1-0.4,0.2-0.6
				c0.1-0.2,0.2-0.4,0.3-0.7c0.4,0.1,0.8,0.3,1.2,0.4c1.4,0.5,2.7,0.6,4.1,0C97.8,80.5,98.4,79.3,98.1,77.7z M98.4,73.2
				c-0.1-0.3-0.1-0.9-0.3-1.4c-0.5-1.5-1.5-2.3-3.1-2.5c-1.4-0.1-2.5,0.4-3.3,1.6c-1,1.5-0.9,3.8,0.1,5.2c1.4,2,4.4,2,5.8,0
				C98.2,75.3,98.4,74.4,98.4,73.2z"/>
			<path class="st0" d="M33.1,73.9c-1.6,0-3,0-4.4,0c-1.4,0-2.8,0-4.2,0c-0.2,1.4,0.5,2.6,1.7,3.3c1.6,0.9,3.4,0.5,5.4-1.2
				c0.3,0.2,0.6,0.5,1,0.7c-0.6,1.2-1.6,1.8-2.8,2.2c-3.2,0.9-7-0.7-7.3-5c-0.1-2.2,0.6-4.1,2.5-5.3c3.1-2,7-0.3,7.8,3.3
				C33,72.4,33,73.1,33.1,73.9z M31.2,72.3c-0.1-1.9-1.4-3.1-3.3-3.1c-1.8,0-3.3,1.3-3.4,3.1C26.8,72.3,29,72.3,31.2,72.3z"/>
			<path class="st0" d="M17.2,73.9c-3,0-5.8,0-8.6,0c-0.2,1.6,1,3,2.1,3.5c1.7,0.7,3.5,0.3,5.1-1.3c0.3,0.2,0.7,0.5,1.1,0.8
				c-1.2,1.8-2.9,2.5-4.9,2.4c-2.7-0.1-4.5-1.7-5.1-4.4c-0.5-2.4,0.5-5.1,2.3-6.3c3.5-2.2,7.7,0,8,4.3
				C17.3,73.1,17.2,73.4,17.2,73.9z M8.7,72.3c2.2,0,4.4,0,6.6,0c-0.1-1.8-1.4-3-3.2-3.1C10.3,69.2,8.7,70.7,8.7,72.3z"/>
			<path class="st0" d="M56.1,73.5c0,3.3-2.4,5.7-5.7,5.7c-3.2,0-5.7-2.5-5.7-5.8c0-3.2,2.5-5.7,5.7-5.7
				C53.7,67.7,56.1,70.2,56.1,73.5z M46.5,73.5c0,2.4,1.6,4.1,3.9,4.2c2.3,0,4.1-1.8,4-4.2c0-2.4-1.8-4.2-4-4.2
				C48.1,69.3,46.5,71.1,46.5,73.5z"/>
			<path class="st0" d="M81,78.9c-0.6,0-1.1,0-1.6,0c0-3.6,0-7.1,0-10.8c0.5,0,1,0,1.5,0c0,0.3,0.1,0.6,0.2,1
				c0.2-0.2,0.4-0.3,0.6-0.5c1.8-1.6,5.6-1.4,6.3,2.2c0,0.2,0.1,0.3,0.1,0.5c0,2.5,0,4.9,0,7.4c-0.5,0-1,0-1.6,0
				c0-0.3-0.1-0.5-0.1-0.8c0-1.8,0-3.6,0-5.3c0-0.3,0-0.6,0-1c-0.1-1.4-1-2.3-2.3-2.4c-1.4-0.1-2.6,0.8-2.8,2.1
				c-0.1,0.4-0.1,0.8-0.1,1.2c0,1.7,0,3.5,0,5.2C81,78.2,81,78.5,81,78.9z"/>
			<path class="st0" d="M43.7,69.3c-0.2,0.4-0.3,0.8-0.6,1.4c-1.3-1.1-2.6-1.6-4.2-1.2c-0.9,0.2-1.5,0.7-2,1.4
				c-1.2,1.6-1.1,4.1,0.2,5.5c1.5,1.7,3.4,1.6,6.1-0.1c0.2,0.4,0.3,0.8,0.4,1.2c-1.4,1.9-5,2.4-7.4,0.4c-2.4-2-2.7-5.9-0.6-8.3
				C38,66.9,41.9,67.4,43.7,69.3z"/>
			<path class="st0" d="M5.3,77.5c0,0.6,0,1,0,1.4c-2.5,0.5-4-0.6-4.1-3.2c-0.1-2.1,0-4.1,0-6.2c0-0.3,0-0.6,0-1
				c-0.4-0.1-0.8-0.1-1.2-0.1c0-0.4,0-0.9,0-1.4c0.4,0,0.7-0.1,1.2-0.1c0-1,0-1.9,0-2.9c0.6,0,1.1,0,1.7,0c0,0.9,0,1.9,0,2.9
				c0.8,0,1.6,0,2.4,0c0,0.5,0,0.9,0,1.5c-0.8,0-1.5,0-2.3,0c0,2.5,0,5,0,7.4c0,1.1,0.6,1.6,1.7,1.7C4.9,77.5,5,77.5,5.3,77.5z"/>
			<path class="st0" d="M19.1,63.8c0.6,0,1.1,0,1.6,0c0,5,0,10,0,15c-0.5,0-1.1,0-1.6,0C19.1,73.9,19.1,68.9,19.1,63.8z"/>
			<path class="st0" d="M75.1,68.1c0.3,0,0.6,0,0.8,0c0.3,0,0.5,0,0.8,0c0,3.6,0,7.2,0,10.8c-0.6,0-1.1,0-1.6,0
				C75.1,75.3,75.1,71.7,75.1,68.1z"/>
			<path class="st0" d="M77.1,65.3c0,0.7-0.5,1.1-1.2,1.1c-0.7,0-1.1-0.5-1.1-1.2c0-0.7,0.5-1.1,1.2-1.1
				C76.6,64.1,77.1,64.6,77.1,65.3z"/>
		</g>
	</g>
	<path class="st0" d="M41.6,49.7c-1.2,0.3-2.2,0.6-3.1,0.9c-1.2,0.3-2.3,0.7-3.5,1c-2.3,0.6-3.9-0.6-3.9-2.9c0-6.2,0-12.3,0-18.5
		c0-2.4,1.6-3.6,3.9-3c0.4,0.1,0.8,0.2,1.3,0.3c0-0.5,0-0.8,0-1.2c0-2.1,0-4.1,0-6.2c0-2.2,1.7-3.4,3.8-2.8
		c6.2,1.7,12.4,3.5,18.6,5.2c2.2,0.6,2.7,1.3,2.7,3.6c0,0.9,0,1.7,0,2.7c0.3,0.1,0.6,0.2,0.9,0.3c1.4,0.4,2.9,0.8,4.3,1.2
		c1.4,0.4,2.1,1.3,2.2,2.7c0,1.5,0,2.9,0,4.4c0,2.7,0,5.4,0,8.2c0,1.8-0.7,2.7-2.4,3.2c-5.7,1.6-11.5,3.2-17.2,4.8
		c-1.3,0.4-2.7,0.8-4,1.1c-1.6,0.4-3-0.3-3.4-1.7c-0.1-0.4-0.1-0.9-0.2-1.3C41.6,51,41.6,50.4,41.6,49.7z M33,39.3
		c0,2.9,0,5.8,0,8.7c0,0.3,0,0.6,0,0.9c0.1,0.7,0.5,1,1.2,0.8c0.6-0.1,1.1-0.3,1.7-0.5c4.8-1.3,9.6-2.7,14.4-4
		c1.1-0.3,1.2-0.5,1.2-1.4c0-3.1,0-6.2,0-9.2c0-0.9-0.2-1.1-1-1.3C45.2,31.9,40,30.4,34.7,29c-1.3-0.4-1.7-0.1-1.7,1.3
		C33,33.3,33,36.3,33,39.3z M53.4,39.4c1.8-0.5,3.4-0.9,5.1-1.4c1.1-0.3,1.2-0.4,1.2-1.6c0-3.5,0-7.1,0-10.6c0-1.2-0.1-1.3-1.2-1.6
		c-6.2-1.7-12.3-3.4-18.5-5.1c-1.2-0.3-1.6,0-1.6,1.2c0,2.3,0,4.7,0,7c0,0.2,0,0.4,0.1,0.7c0.4,0.1,0.7,0.2,1,0.3
		c3.9,1.1,7.9,2.2,11.8,3.3c1.5,0.4,2.2,1.4,2.2,3c0,0.6,0,1.1,0,1.7C53.4,37.2,53.4,38.3,53.4,39.4z M43.5,49.1c0,0.8,0,1.6,0,2.3
		c0,1.3,0.4,1.6,1.6,1.2c6.9-1.9,13.8-3.8,20.7-5.8c1.1-0.3,1.2-0.5,1.2-1.6c0-2.3,0-4.5,0-6.8c0-1.8,0-3.6,0-5.3
		c0-0.5,0-0.9-0.6-1.1c-1.6-0.5-3.2-0.9-4.9-1.4c0,0.5,0,0.8,0,1.1c0,1.6,0,3.1,0,4.7c0,1.9-0.6,2.8-2.5,3.3c-1.9,0.5-3.7,1-5.6,1.6
		c0,1,0.1,1.9,0,2.9c-0.1,0.6-0.3,1.4-0.7,1.9c-0.3,0.4-1,0.8-1.5,0.9C48.6,47.7,46.1,48.4,43.5,49.1z"/>
</g>
</svg>
